solid csg.js
facet normal 0 0 -1
outer loop
vertex 81 5.750000000000128 0
vertex 81.07596123493894 6.618240888334611 0
vertex 81.30153689607047 7.4601007166284035 0
endloop
endfacet
facet normal 0 0 -1
outer loop
vertex 81 5.750000000000128 0
vertex 81.30153689607047 7.4601007166284035 0
vertex 81.66987298107773 8.249999999999922 0
endloop
endfacet
facet normal 0 0 -1
outer loop
vertex 81 5.750000000000128 0
vertex 81.66987298107773 8.249999999999922 0
vertex 82.16977778440508 8.963938048432667 0
endloop
endfacet
facet normal 0 0 -1
outer loop
vertex 81 5.750000000000128 0
vertex 82.16977778440508 8.963938048432667 0
vertex 82.78606195156732 9.580222215594915 0
endloop
endfacet
facet normal 0 0 -1
outer loop
vertex 81 5.750000000000128 0
vertex 82.78606195156732 9.580222215594915 0
vertex 83.5 10.080127018922191 0
endloop
endfacet
facet normal 0 0 -1
outer loop
vertex 81 5.750000000000128 0
vertex 83.5 10.080127018922191 0
vertex 84.28989928337165 10.448463103929548 0
endloop
endfacet
facet normal 0 0 -1
outer loop
vertex 81 5.750000000000128 0
vertex 84.28989928337165 10.448463103929548 0
vertex 85.13175911166536 10.674038765061049 0
endloop
endfacet
facet normal 0 0 -1
outer loop
vertex 81 5.750000000000128 0
vertex 85.13175911166536 10.674038765061049 0
vertex 85.99999999999994 10.75 0
endloop
endfacet
facet normal 0 0 -1
outer loop
vertex 81 5.750000000000128 0
vertex 85.99999999999994 10.75 0
vertex 475.65 10.75 0
endloop
endfacet
facet normal 0 0 -1
outer loop
vertex 81 5.750000000000128 0
vertex 475.65 10.75 0
vertex 476.5182408883346 10.674038765061042 0
endloop
endfacet
facet normal 0 0 -1
outer loop
vertex 81 5.750000000000128 0
vertex 476.5182408883346 10.674038765061042 0
vertex 477.3601007166284 10.448463103929527 0
endloop
endfacet
facet normal 0 0 -1
outer loop
vertex 81 5.750000000000128 0
vertex 477.3601007166284 10.448463103929527 0
vertex 478.1499999999999 10.080127018922234 0
endloop
endfacet
facet normal 0 0 -1
outer loop
vertex 81 5.750000000000128 0
vertex 478.1499999999999 10.080127018922234 0
vertex 478.8639380484329 9.580222215594738 0
endloop
endfacet
facet normal 0 0 -1
outer loop
vertex 81 5.750000000000128 0
vertex 478.8639380484329 9.580222215594738 0
vertex 479.4802222155947 8.963938048432922 0
endloop
endfacet
facet normal 0 0 -1
outer loop
vertex 81 5.750000000000128 0
vertex 479.4802222155947 8.963938048432922 0
vertex 479.9801270189222 8.249999999999957 0
endloop
endfacet
facet normal 0 0 -1
outer loop
vertex 81 5.750000000000128 0
vertex 479.9801270189222 8.249999999999957 0
vertex 480.3484631039295 7.460100716628453 0
endloop
endfacet
facet normal 0 0 -1
outer loop
vertex 81 5.750000000000128 0
vertex 480.3484631039295 7.460100716628453 0
vertex 480.574038765061 6.618240888334633 0
endloop
endfacet
facet normal 0 0 -1
outer loop
vertex 81 5.750000000000128 0
vertex 480.574038765061 6.618240888334633 0
vertex 480.65 5.749999999999886 0
endloop
endfacet
facet normal 0 0 -1
outer loop
vertex 81 5.750000000000128 0
vertex 480.65 5.749999999999886 0
vertex 480.65 -111.50000000000026 0
endloop
endfacet
facet normal 0 0 -1
outer loop
vertex 81 5.750000000000128 0
vertex 480.65 -111.50000000000026 0
vertex 480.57403876506106 -112.36824088833426 0
endloop
endfacet
facet normal 0 0 -1
outer loop
vertex 81 5.750000000000128 0
vertex 480.57403876506106 -112.36824088833426 0
vertex 480.3484631039296 -113.21010071662802 0
endloop
endfacet
facet normal 0 0 -1
outer loop
vertex 81 5.750000000000128 0
vertex 480.3484631039296 -113.21010071662802 0
vertex 479.98012701892196 -114.00000000000026 0
endloop
endfacet
facet normal 0 0 -1
outer loop
vertex 81 5.750000000000128 0
vertex 479.98012701892196 -114.00000000000026 0
vertex 479.4802222155947 -114.71393804843292 0
endloop
endfacet
facet normal 0 0 -1
outer loop
vertex 81 5.750000000000128 0
vertex 479.4802222155947 -114.71393804843292 0
vertex 478.8639380484328 -115.33022221559483 0
endloop
endfacet
facet normal 0 0 -1
outer loop
vertex 81 5.750000000000128 0
vertex 478.8639380484328 -115.33022221559483 0
vertex 478.15 -115.83012701892224 0
endloop
endfacet
facet normal 0 0 -1
outer loop
vertex 81 5.750000000000128 0
vertex 478.15 -115.83012701892224 0
vertex 477.36010071662855 -116.19846310392948 0
endloop
endfacet
facet normal 0 0 -1
outer loop
vertex 81 5.750000000000128 0
vertex 477.36010071662855 -116.19846310392948 0
vertex 476.5182408883347 -116.42403876506104 0
endloop
endfacet
facet normal 0 0 -1
outer loop
vertex 81 5.750000000000128 0
vertex 476.5182408883347 -116.42403876506104 0
vertex 475.65 -116.5 0
endloop
endfacet
facet normal 0 0 -1
outer loop
vertex 81 5.750000000000128 0
vertex 475.65 -116.5 0
vertex 85.99999999999997 -116.5 0
endloop
endfacet
facet normal 0 0 -1
outer loop
vertex 81 5.750000000000128 0
vertex 85.99999999999997 -116.5 0
vertex 85.13175911166547 -116.42403876506106 0
endloop
endfacet
facet normal 0 0 -1
outer loop
vertex 81 5.750000000000128 0
vertex 85.13175911166547 -116.42403876506106 0
vertex 84.2898992833716 -116.19846310392951 0
endloop
endfacet
facet normal 0 0 -1
outer loop
vertex 81 5.750000000000128 0
vertex 84.2898992833716 -116.19846310392951 0
vertex 83.49999999999994 -115.83012701892217 0
endloop
endfacet
facet normal 0 0 -1
outer loop
vertex 81 5.750000000000128 0
vertex 83.49999999999994 -115.83012701892217 0
vertex 82.78606195156726 -115.33022221559487 0
endloop
endfacet
facet normal 0 0 -1
outer loop
vertex 81 5.750000000000128 0
vertex 82.78606195156726 -115.33022221559487 0
vertex 82.16977778440508 -114.71393804843268 0
endloop
endfacet
facet normal 0 0 -1
outer loop
vertex 81 5.750000000000128 0
vertex 82.16977778440508 -114.71393804843268 0
vertex 81.66987298107784 -114.00000000000006 0
endloop
endfacet
facet normal 0 0 -1
outer loop
vertex 81 5.750000000000128 0
vertex 81.66987298107784 -114.00000000000006 0
vertex 81.30153689607044 -113.21010071662835 0
endloop
endfacet
facet normal 0 0 -1
outer loop
vertex 81 5.750000000000128 0
vertex 81.30153689607044 -113.21010071662835 0
vertex 81.07596123493897 -112.36824088833465 0
endloop
endfacet
facet normal 0 0 -1
outer loop
vertex 81 5.750000000000128 0
vertex 81.07596123493897 -112.36824088833465 0
vertex 81 -111.5 0
endloop
endfacet
facet normal 0 0 1
outer loop
vertex 86 10.75 1
vertex 85.1317591116653 10.674038765061034 1
vertex 84.28989928337168 10.448463103929555 1
endloop
endfacet
facet normal 0 0 1
outer loop
vertex 86 10.75 1
vertex 84.28989928337168 10.448463103929555 1
vertex 83.49999999999997 10.08012701892217 1
endloop
endfacet
facet normal 0 0 1
outer loop
vertex 86 10.75 1
vertex 83.49999999999997 10.08012701892217 1
vertex 82.78606195156732 9.580222215594901 1
endloop
endfacet
facet normal 0 0 1
outer loop
vertex 86 10.75 1
vertex 82.78606195156732 9.580222215594901 1
vertex 82.16977778440508 8.963938048432652 1
endloop
endfacet
facet normal 0 0 1
outer loop
vertex 86 10.75 1
vertex 82.16977778440508 8.963938048432652 1
vertex 81.66987298107779 8.249999999999972 1
endloop
endfacet
facet normal 0 0 1
outer loop
vertex 86 10.75 1
vertex 81.66987298107779 8.249999999999972 1
vertex 81.30153689607044 7.460100716628304 1
endloop
endfacet
facet normal 0 0 1
outer loop
vertex 86 10.75 1
vertex 81.30153689607044 7.460100716628304 1
vertex 81.07596123493897 6.618240888334697 1
endloop
endfacet
facet normal 0 0 1
outer loop
vertex 86 10.75 1
vertex 81.07596123493897 6.618240888334697 1
vertex 81 5.750000000000043 1
endloop
endfacet
facet normal 0 0 1
outer loop
vertex 86 10.75 1
vertex 81 5.750000000000043 1
vertex 81 -111.49999999999999 1
endloop
endfacet
facet normal 0 0 1
outer loop
vertex 86 10.75 1
vertex 81 -111.49999999999999 1
vertex 81.07596123493897 -112.36824088833464 1
endloop
endfacet
facet normal 0 0 1
outer loop
vertex 86 10.75 1
vertex 81.07596123493897 -112.36824088833464 1
vertex 81.30153689607044 -113.21010071662835 1
endloop
endfacet
facet normal 0 0 1
outer loop
vertex 86 10.75 1
vertex 81.30153689607044 -113.21010071662835 1
vertex 81.66987298107782 -114.00000000000001 1
endloop
endfacet
facet normal 0 0 1
outer loop
vertex 86 10.75 1
vertex 81.66987298107782 -114.00000000000001 1
vertex 82.16977778440514 -114.71393804843274 1
endloop
endfacet
facet normal 0 0 1
outer loop
vertex 86 10.75 1
vertex 82.16977778440514 -114.71393804843274 1
vertex 82.7860619515672 -115.33022221559482 1
endloop
endfacet
facet normal 0 0 1
outer loop
vertex 86 10.75 1
vertex 82.7860619515672 -115.33022221559482 1
vertex 83.49999999999994 -115.83012701892216 1
endloop
endfacet
facet normal 0 0 1
outer loop
vertex 86 10.75 1
vertex 83.49999999999994 -115.83012701892216 1
vertex 84.28989928337165 -116.19846310392953 1
endloop
endfacet
facet normal 0 0 1
outer loop
vertex 86 10.75 1
vertex 84.28989928337165 -116.19846310392953 1
vertex 85.13175911166542 -116.42403876506104 1
endloop
endfacet
facet normal 0 0 1
outer loop
vertex 86 10.75 1
vertex 85.13175911166542 -116.42403876506104 1
vertex 86.00000000000009 -116.5 1
endloop
endfacet
facet normal 0 0 1
outer loop
vertex 86 10.75 1
vertex 86.00000000000009 -116.5 1
vertex 475.64999999999986 -116.5 1
endloop
endfacet
facet normal 0 0 1
outer loop
vertex 86 10.75 1
vertex 475.64999999999986 -116.5 1
vertex 476.51824088833473 -116.42403876506103 1
endloop
endfacet
facet normal 0 0 1
outer loop
vertex 86 10.75 1
vertex 476.51824088833473 -116.42403876506103 1
vertex 477.3601007166285 -116.19846310392951 1
endloop
endfacet
facet normal 0 0 1
outer loop
vertex 86 10.75 1
vertex 477.3601007166285 -116.19846310392951 1
vertex 478.1499999999998 -115.83012701892233 1
endloop
endfacet
facet normal 0 0 1
outer loop
vertex 86 10.75 1
vertex 478.1499999999998 -115.83012701892233 1
vertex 478.8639380484328 -115.3302222155948 1
endloop
endfacet
facet normal 0 0 1
outer loop
vertex 86 10.75 1
vertex 478.8639380484328 -115.3302222155948 1
vertex 479.4802222155946 -114.71393804843301 1
endloop
endfacet
facet normal 0 0 1
outer loop
vertex 86 10.75 1
vertex 479.4802222155946 -114.71393804843301 1
vertex 479.9801270189223 -113.99999999999976 1
endloop
endfacet
facet normal 0 0 1
outer loop
vertex 86 10.75 1
vertex 479.9801270189223 -113.99999999999976 1
vertex 480.34846310392953 -113.2101007166283 1
endloop
endfacet
facet normal 0 0 1
outer loop
vertex 86 10.75 1
vertex 480.34846310392953 -113.2101007166283 1
vertex 480.57403876506106 -112.36824088833443 1
endloop
endfacet
facet normal 0 0 1
outer loop
vertex 86 10.75 1
vertex 480.57403876506106 -112.36824088833443 1
vertex 480.65 -111.50000000000041 1
endloop
endfacet
facet normal 0 0 1
outer loop
vertex 86 10.75 1
vertex 480.65 -111.50000000000041 1
vertex 480.65 5.749999999999957 1
endloop
endfacet
facet normal 0 0 1
outer loop
vertex 86 10.75 1
vertex 480.65 5.749999999999957 1
vertex 480.574038765061 6.618240888334448 1
endloop
endfacet
facet normal 0 0 1
outer loop
vertex 86 10.75 1
vertex 480.574038765061 6.618240888334448 1
vertex 480.34846310392936 7.460100716628787 1
endloop
endfacet
facet normal 0 0 1
outer loop
vertex 86 10.75 1
vertex 480.34846310392936 7.460100716628787 1
vertex 479.98012701892236 8.249999999999723 1
endloop
endfacet
facet normal 0 0 1
outer loop
vertex 86 10.75 1
vertex 479.98012701892236 8.249999999999723 1
vertex 479.4802222155948 8.963938048432809 1
endloop
endfacet
facet normal 0 0 1
outer loop
vertex 86 10.75 1
vertex 479.4802222155948 8.963938048432809 1
vertex 478.8639380484326 9.580222215594965 1
endloop
endfacet
facet normal 0 0 1
outer loop
vertex 86 10.75 1
vertex 478.8639380484326 9.580222215594965 1
vertex 478.1499999999999 10.08012701892224 1
endloop
endfacet
facet normal 0 0 1
outer loop
vertex 86 10.75 1
vertex 478.1499999999999 10.08012701892224 1
vertex 477.3601007166284 10.448463103929512 1
endloop
endfacet
facet normal 0 0 1
outer loop
vertex 86 10.75 1
vertex 477.3601007166284 10.448463103929512 1
vertex 476.5182408883345 10.674038765061056 1
endloop
endfacet
facet normal 0 0 1
outer loop
vertex 86 10.75 1
vertex 476.5182408883345 10.674038765061056 1
vertex 475.65000000000003 10.75 1
endloop
endfacet
facet normal -0.996194698091746 -0.08715574274765456 0
outer loop
vertex 81.07596123493897 -112.36824088833464 1
vertex 81 -111.49999999999999 1
vertex 81 -111.5 0
endloop
endfacet
facet normal -0.996194698091746 -0.08715574274765456 0
outer loop
vertex 81.07596123493897 -112.36824088833464 1
vertex 81 -111.5 0
vertex 81.07596123493897 -112.36824088833465 0
endloop
endfacet
facet normal -0.9659258262890704 -0.2588190451025125 0
outer loop
vertex 81.30153689607044 -113.21010071662835 1
vertex 81.07596123493897 -112.36824088833464 1
vertex 81.07596123493897 -112.36824088833465 0
endloop
endfacet
facet normal -0.9659258262890704 -0.2588190451025125 0
outer loop
vertex 81.30153689607044 -113.21010071662835 1
vertex 81.07596123493897 -112.36824088833465 0
vertex 81.30153689607044 -113.21010071662835 0
endloop
endfacet
facet normal -0.9063077870366553 -0.42261826174068806 0
outer loop
vertex 81.66987298107782 -114.00000000000001 1
vertex 81.30153689607044 -113.21010071662835 1
vertex 81.30153689607044 -113.21010071662835 0
endloop
endfacet
facet normal -0.9063077870366553 -0.42261826174068806 0
outer loop
vertex 81.66987298107782 -114.00000000000001 1
vertex 81.30153689607044 -113.21010071662835 0
vertex 81.66987298107784 -114.00000000000006 0
endloop
endfacet
facet normal -0.8191520442889823 -0.5735764363510599 0
outer loop
vertex 82.16977778440514 -114.71393804843274 1
vertex 81.66987298107782 -114.00000000000001 1
vertex 81.66987298107784 -114.00000000000006 0
endloop
endfacet
facet normal -0.8191520442889823 -0.5735764363510599 0
outer loop
vertex 82.16977778440514 -114.71393804843274 1
vertex 81.66987298107784 -114.00000000000006 0
vertex 82.16977778440508 -114.71393804843268 0
endloop
endfacet
facet normal -0.7071067811865485 -0.7071067811865467 0
outer loop
vertex 82.7860619515672 -115.33022221559482 1
vertex 82.16977778440514 -114.71393804843274 1
vertex 82.16977778440508 -114.71393804843268 0
endloop
endfacet
facet normal -0.7071067811865485 -0.7071067811865467 0
outer loop
vertex 82.7860619515672 -115.33022221559482 1
vertex 82.16977778440508 -114.71393804843268 0
vertex 82.78606195156726 -115.33022221559487 0
endloop
endfacet
facet normal -0.5735764363510406 -0.8191520442889957 0
outer loop
vertex 83.49999999999994 -115.83012701892216 1
vertex 82.7860619515672 -115.33022221559482 1
vertex 82.78606195156726 -115.33022221559487 0
endloop
endfacet
facet normal -0.5735764363510406 -0.8191520442889957 0
outer loop
vertex 83.49999999999994 -115.83012701892216 1
vertex 82.78606195156726 -115.33022221559487 0
vertex 83.49999999999994 -115.83012701892217 0
endloop
endfacet
facet normal -0.42261826174070183 -0.9063077870366489 0
outer loop
vertex 84.28989928337165 -116.19846310392953 1
vertex 83.49999999999994 -115.83012701892216 1
vertex 83.49999999999994 -115.83012701892217 0
endloop
endfacet
facet normal -0.42261826174070183 -0.9063077870366489 0
outer loop
vertex 84.28989928337165 -116.19846310392953 1
vertex 83.49999999999994 -115.83012701892217 0
vertex 84.2898992833716 -116.19846310392951 0
endloop
endfacet
facet normal -0.25881904510251297 -0.9659258262890704 0
outer loop
vertex 85.13175911166542 -116.42403876506104 1
vertex 84.28989928337165 -116.19846310392953 1
vertex 84.2898992833716 -116.19846310392951 0
endloop
endfacet
facet normal -0.25881904510251297 -0.9659258262890704 0
outer loop
vertex 85.13175911166542 -116.42403876506104 1
vertex 84.2898992833716 -116.19846310392951 0
vertex 85.13175911166547 -116.42403876506106 0
endloop
endfacet
facet normal -0.08715574274765463 -0.9961946980917459 0
outer loop
vertex 86.00000000000009 -116.5 1
vertex 85.13175911166542 -116.42403876506104 1
vertex 85.13175911166547 -116.42403876506106 0
endloop
endfacet
facet normal -0.08715574274765463 -0.9961946980917459 0
outer loop
vertex 86.00000000000009 -116.5 1
vertex 85.13175911166547 -116.42403876506106 0
vertex 85.99999999999997 -116.5 0
endloop
endfacet
facet normal 0 -1 0
outer loop
vertex 475.65 -116.5 0
vertex 475.64999999999986 -116.5 1
vertex 86.00000000000009 -116.5 1
endloop
endfacet
facet normal 0 -1 0
outer loop
vertex 475.65 -116.5 0
vertex 86.00000000000009 -116.5 1
vertex 85.99999999999997 -116.5 0
endloop
endfacet
facet normal 0.08715574274765463 -0.9961946980917459 0
outer loop
vertex 476.51824088833473 -116.42403876506103 1
vertex 475.64999999999986 -116.5 1
vertex 475.65 -116.5 0
endloop
endfacet
facet normal 0.08715574274765463 -0.9961946980917459 0
outer loop
vertex 476.51824088833473 -116.42403876506103 1
vertex 475.65 -116.5 0
vertex 476.5182408883347 -116.42403876506104 0
endloop
endfacet
facet normal 0.25881904510248555 -0.9659258262890777 0
outer loop
vertex 477.3601007166285 -116.19846310392951 1
vertex 476.51824088833473 -116.42403876506103 1
vertex 476.5182408883347 -116.42403876506104 0
endloop
endfacet
facet normal 0.25881904510248555 -0.9659258262890777 0
outer loop
vertex 477.3601007166285 -116.19846310392951 1
vertex 476.5182408883347 -116.42403876506104 0
vertex 477.36010071662855 -116.19846310392948 0
endloop
endfacet
facet normal 0.4226182617406892 -0.9063077870366548 0
outer loop
vertex 478.1499999999998 -115.83012701892233 1
vertex 477.3601007166285 -116.19846310392951 1
vertex 477.36010071662855 -116.19846310392948 0
endloop
endfacet
facet normal 0.4226182617406892 -0.9063077870366548 0
outer loop
vertex 478.1499999999998 -115.83012701892233 1
vertex 477.36010071662855 -116.19846310392948 0
vertex 478.15 -115.83012701892224 0
endloop
endfacet
facet normal 0.5735764363510599 -0.8191520442889821 0
outer loop
vertex 478.8639380484328 -115.3302222155948 1
vertex 478.1499999999998 -115.83012701892233 1
vertex 478.15 -115.83012701892224 0
endloop
endfacet
facet normal 0.5735764363510599 -0.8191520442889821 0
outer loop
vertex 478.8639380484328 -115.3302222155948 1
vertex 478.15 -115.83012701892224 0
vertex 478.8639380484328 -115.33022221559483 0
endloop
endfacet
facet normal 0.7071067811865476 -0.7071067811865476 0
outer loop
vertex 479.4802222155946 -114.71393804843301 1
vertex 478.8639380484328 -115.3302222155948 1
vertex 478.8639380484328 -115.33022221559483 0
endloop
endfacet
facet normal 0.7071067811865476 -0.7071067811865476 0
outer loop
vertex 479.4802222155946 -114.71393804843301 1
vertex 478.8639380484328 -115.33022221559483 0
vertex 479.4802222155947 -114.71393804843292 0
endloop
endfacet
facet normal 0.8191520442889728 -0.5735764363510732 0
outer loop
vertex 479.9801270189223 -113.99999999999976 1
vertex 479.4802222155946 -114.71393804843301 1
vertex 479.4802222155947 -114.71393804843292 0
endloop
endfacet
facet normal 0.8191520442889728 -0.5735764363510732 0
outer loop
vertex 479.9801270189223 -113.99999999999976 1
vertex 479.4802222155947 -114.71393804843292 0
vertex 479.98012701892196 -114.00000000000026 0
endloop
endfacet
facet normal 0.9063077870366497 -0.42261826174070005 0
outer loop
vertex 480.34846310392953 -113.2101007166283 1
vertex 479.9801270189223 -113.99999999999976 1
vertex 479.98012701892196 -114.00000000000026 0
endloop
endfacet
facet normal 0.9063077870366497 -0.42261826174070005 0
outer loop
vertex 480.34846310392953 -113.2101007166283 1
vertex 479.98012701892196 -114.00000000000026 0
vertex 480.3484631039296 -113.21010071662802 0
endloop
endfacet
facet normal 0.9659258262890924 -0.25881904510243076 0
outer loop
vertex 480.57403876506106 -112.36824088833443 1
vertex 480.34846310392953 -113.2101007166283 1
vertex 480.3484631039296 -113.21010071662802 0
endloop
endfacet
facet normal 0.9659258262890924 -0.25881904510243076 0
outer loop
vertex 480.57403876506106 -112.36824088833443 1
vertex 480.3484631039296 -113.21010071662802 0
vertex 480.57403876506106 -112.36824088833426 0
endloop
endfacet
facet normal 0.996194698091746 -0.08715574274765432 0
outer loop
vertex 480.65 -111.50000000000041 1
vertex 480.57403876506106 -112.36824088833443 1
vertex 480.57403876506106 -112.36824088833426 0
endloop
endfacet
facet normal 0.996194698091746 -0.08715574274765432 0
outer loop
vertex 480.65 -111.50000000000041 1
vertex 480.57403876506106 -112.36824088833426 0
vertex 480.65 -111.50000000000026 0
endloop
endfacet
facet normal 1 0 0
outer loop
vertex 480.65 5.749999999999886 0
vertex 480.65 5.749999999999957 1
vertex 480.65 -111.50000000000041 1
endloop
endfacet
facet normal 1 0 0
outer loop
vertex 480.65 5.749999999999886 0
vertex 480.65 -111.50000000000041 1
vertex 480.65 -111.50000000000026 0
endloop
endfacet
facet normal 0.996194698091746 0.08715574274765432 0
outer loop
vertex 480.574038765061 6.618240888334448 1
vertex 480.65 5.749999999999957 1
vertex 480.65 5.749999999999886 0
endloop
endfacet
facet normal 0.996194698091746 0.08715574274765432 0
outer loop
vertex 480.574038765061 6.618240888334448 1
vertex 480.65 5.749999999999886 0
vertex 480.574038765061 6.618240888334633 0
endloop
endfacet
facet normal 0.9659258262890933 0.2588190451024272 0
outer loop
vertex 480.34846310392936 7.460100716628787 1
vertex 480.574038765061 6.618240888334448 1
vertex 480.574038765061 6.618240888334633 0
endloop
endfacet
facet normal 0.9659258262890933 0.2588190451024272 0
outer loop
vertex 480.34846310392936 7.460100716628787 1
vertex 480.574038765061 6.618240888334633 0
vertex 480.3484631039295 7.460100716628453 0
endloop
endfacet
facet normal 0.9063077870366497 0.4226182617407 0
outer loop
vertex 479.98012701892236 8.249999999999723 1
vertex 480.34846310392936 7.460100716628787 1
vertex 480.3484631039295 7.460100716628453 0
endloop
endfacet
facet normal 0.9063077870366497 0.4226182617407 0
outer loop
vertex 479.98012701892236 8.249999999999723 1
vertex 480.3484631039295 7.460100716628453 0
vertex 479.9801270189222 8.249999999999957 0
endloop
endfacet
facet normal 0.8191520442889821 0.5735764363510599 0
outer loop
vertex 479.4802222155948 8.963938048432809 1
vertex 479.98012701892236 8.249999999999723 1
vertex 479.9801270189222 8.249999999999957 0
endloop
endfacet
facet normal 0.8191520442889821 0.5735764363510599 0
outer loop
vertex 479.4802222155948 8.963938048432809 1
vertex 479.9801270189222 8.249999999999957 0
vertex 479.4802222155947 8.963938048432922 0
endloop
endfacet
facet normal 0.7071067811865334 0.7071067811865618 0
outer loop
vertex 478.8639380484326 9.580222215594965 1
vertex 479.4802222155948 8.963938048432809 1
vertex 479.4802222155947 8.963938048432922 0
endloop
endfacet
facet normal 0.7071067811865334 0.7071067811865618 0
outer loop
vertex 478.8639380484326 9.580222215594965 1
vertex 479.4802222155947 8.963938048432922 0
vertex 478.8639380484329 9.580222215594738 0
endloop
endfacet
facet normal 0.5735764363510599 0.8191520442889821 0
outer loop
vertex 478.1499999999999 10.08012701892224 1
vertex 478.8639380484326 9.580222215594965 1
vertex 478.8639380484329 9.580222215594738 0
endloop
endfacet
facet normal 0.5735764363510599 0.8191520442889821 0
outer loop
vertex 478.1499999999999 10.08012701892224 1
vertex 478.8639380484329 9.580222215594738 0
vertex 478.1499999999999 10.080127018922234 0
endloop
endfacet
facet normal 0.42261826174069467 0.9063077870366524 0
outer loop
vertex 477.3601007166284 10.448463103929512 1
vertex 478.1499999999999 10.08012701892224 1
vertex 478.1499999999999 10.080127018922234 0
endloop
endfacet
facet normal 0.42261826174069467 0.9063077870366524 0
outer loop
vertex 477.3601007166284 10.448463103929512 1
vertex 478.1499999999999 10.080127018922234 0
vertex 477.3601007166284 10.448463103929527 0
endloop
endfacet
facet normal 0.25881904510251214 0.9659258262890708 0
outer loop
vertex 476.5182408883345 10.674038765061056 1
vertex 477.3601007166284 10.448463103929512 1
vertex 477.3601007166284 10.448463103929527 0
endloop
endfacet
facet normal 0.25881904510251214 0.9659258262890708 0
outer loop
vertex 476.5182408883345 10.674038765061056 1
vertex 477.3601007166284 10.448463103929527 0
vertex 476.5182408883346 10.674038765061042 0
endloop
endfacet
facet normal 0.08715574274765456 0.996194698091746 0
outer loop
vertex 475.65000000000003 10.75 1
vertex 476.5182408883345 10.674038765061056 1
vertex 476.5182408883346 10.674038765061042 0
endloop
endfacet
facet normal 0.08715574274765456 0.996194698091746 0
outer loop
vertex 475.65000000000003 10.75 1
vertex 476.5182408883346 10.674038765061042 0
vertex 475.65 10.75 0
endloop
endfacet
facet normal 0 1 0
outer loop
vertex 475.65000000000003 10.75 1
vertex 475.65 10.75 0
vertex 85.99999999999994 10.75 0
endloop
endfacet
facet normal 0 1 0
outer loop
vertex 475.65000000000003 10.75 1
vertex 85.99999999999994 10.75 0
vertex 86 10.75 1
endloop
endfacet
facet normal -0.0871557427476537 0.996194698091746 0
outer loop
vertex 85.1317591116653 10.674038765061034 1
vertex 86 10.75 1
vertex 85.99999999999994 10.75 0
endloop
endfacet
facet normal -0.0871557427476537 0.996194698091746 0
outer loop
vertex 85.1317591116653 10.674038765061034 1
vertex 85.99999999999994 10.75 0
vertex 85.13175911166536 10.674038765061049 0
endloop
endfacet
facet normal -0.258819045102527 0.9659258262890666 0
outer loop
vertex 84.28989928337168 10.448463103929555 1
vertex 85.1317591116653 10.674038765061034 1
vertex 85.13175911166536 10.674038765061049 0
endloop
endfacet
facet normal -0.258819045102527 0.9659258262890666 0
outer loop
vertex 84.28989928337168 10.448463103929555 1
vertex 85.13175911166536 10.674038765061049 0
vertex 84.28989928337165 10.448463103929548 0
endloop
endfacet
facet normal -0.4226182617406989 0.9063077870366503 0
outer loop
vertex 83.49999999999997 10.08012701892217 1
vertex 84.28989928337168 10.448463103929555 1
vertex 84.28989928337165 10.448463103929548 0
endloop
endfacet
facet normal -0.4226182617406989 0.9063077870366503 0
outer loop
vertex 83.49999999999997 10.08012701892217 1
vertex 84.28989928337165 10.448463103929548 0
vertex 83.5 10.080127018922191 0
endloop
endfacet
facet normal -0.5735764363510616 0.8191520442889809 0
outer loop
vertex 82.78606195156732 9.580222215594901 1
vertex 83.49999999999997 10.08012701892217 1
vertex 83.5 10.080127018922191 0
endloop
endfacet
facet normal -0.5735764363510616 0.8191520442889809 0
outer loop
vertex 82.78606195156732 9.580222215594901 1
vertex 83.5 10.080127018922191 0
vertex 82.78606195156732 9.580222215594915 0
endloop
endfacet
facet normal -0.7071067811865476 0.7071067811865476 0
outer loop
vertex 82.16977778440508 8.963938048432652 1
vertex 82.78606195156732 9.580222215594901 1
vertex 82.78606195156732 9.580222215594915 0
endloop
endfacet
facet normal -0.7071067811865476 0.7071067811865476 0
outer loop
vertex 82.16977778440508 8.963938048432652 1
vertex 82.78606195156732 9.580222215594915 0
vertex 82.16977778440508 8.963938048432667 0
endloop
endfacet
facet normal -0.8191520442889821 0.5735764363510599 0
outer loop
vertex 81.66987298107779 8.249999999999972 1
vertex 82.16977778440508 8.963938048432652 1
vertex 82.16977778440508 8.963938048432667 0
endloop
endfacet
facet normal -0.8191520442889821 0.5735764363510599 0
outer loop
vertex 81.66987298107779 8.249999999999972 1
vertex 82.16977778440508 8.963938048432667 0
vertex 81.66987298107773 8.249999999999922 0
endloop
endfacet
facet normal -0.9063077870366524 0.4226182617406946 0
outer loop
vertex 81.30153689607044 7.460100716628304 1
vertex 81.66987298107779 8.249999999999972 1
vertex 81.66987298107773 8.249999999999922 0
endloop
endfacet
facet normal -0.9063077870366524 0.4226182617406946 0
outer loop
vertex 81.30153689607044 7.460100716628304 1
vertex 81.66987298107773 8.249999999999922 0
vertex 81.30153689607047 7.4601007166284035 0
endloop
endfacet
facet normal -0.9659258262890629 0.2588190451025413 0
outer loop
vertex 81.07596123493897 6.618240888334697 1
vertex 81.30153689607044 7.460100716628304 1
vertex 81.30153689607047 7.4601007166284035 0
endloop
endfacet
facet normal -0.9659258262890629 0.2588190451025413 0
outer loop
vertex 81.07596123493897 6.618240888334697 1
vertex 81.30153689607047 7.4601007166284035 0
vertex 81.07596123493894 6.618240888334611 0
endloop
endfacet
facet normal -0.996194698091746 0.08715574274765456 0
outer loop
vertex 81 5.750000000000043 1
vertex 81.07596123493897 6.618240888334697 1
vertex 81.07596123493894 6.618240888334611 0
endloop
endfacet
facet normal -0.996194698091746 0.08715574274765456 0
outer loop
vertex 81 5.750000000000043 1
vertex 81.07596123493894 6.618240888334611 0
vertex 81 5.750000000000128 0
endloop
endfacet
facet normal -1 0 0
outer loop
vertex 81 5.750000000000043 1
vertex 81 5.750000000000128 0
vertex 81 -111.5 0
endloop
endfacet
facet normal -1 0 0
outer loop
vertex 81 5.750000000000043 1
vertex 81 -111.5 0
vertex 81 -111.49999999999999 1
endloop
endfacet
endsolid csg.js
