solid csg.js
facet normal -0.996194698091746 -0.08715574274765456 0
outer loop
vertex 81.07596123493869 -112.36824088833471 4.000000000000002
vertex 80.99999999999973 -111.50000000000006 4.000000000000002
vertex 80.99999999999973 -111.50000000000006 0
endloop
endfacet
facet normal -0.996194698091746 -0.08715574274765456 0
outer loop
vertex 81.07596123493869 -112.36824088833471 4.000000000000002
vertex 80.99999999999973 -111.50000000000006 0
vertex 81.07596123493869 -112.36824088833471 0
endloop
endfacet
facet normal 0.003207891243038617 0.0008595518679728999 0.9999944852869735
outer loop
vertex 81.3015368960692 -113.21010071662867 4
vertex 81.11126598250515 -112.5 4
vertex 81.07596123493869 -112.36824088833471 4.000000000000002
endloop
endfacet
facet normal 0.003207891243038617 0.0008595518679728999 0.9999944852869735
outer loop
vertex 81.3015368960692 -113.21010071662867 4
vertex 81.07596123493869 -112.36824088833471 4.000000000000002
vertex 81.07596123493869 -112.36824088833471 0
endloop
endfacet
facet normal 0.003207891243038617 0.0008595518679728999 0.9999944852869735
outer loop
vertex 81.3015368960692 -113.21010071662867 4
vertex 81.07596123493869 -112.36824088833471 0
vertex 81.11126598250515 -112.5 0
endloop
endfacet
facet normal 0.003207891243038617 0.0008595518679728999 0.9999944852869735
outer loop
vertex 81.3015368960692 -113.21010071662867 4
vertex 81.11126598250515 -112.5 0
vertex 81.3015368960692 -113.21010071662867 0
endloop
endfacet
facet normal -0.9063077870366553 -0.42261826174068806 0
outer loop
vertex 81.66987298107783 -113.99999999999996 4
vertex 81.3015368960692 -113.21010071662867 4
vertex 81.3015368960692 -113.21010071662867 0
endloop
endfacet
facet normal -0.9063077870366553 -0.42261826174068806 0
outer loop
vertex 81.66987298107783 -113.99999999999996 4
vertex 81.3015368960692 -113.21010071662867 0
vertex 81.66987298107783 -113.99999999999996 0
endloop
endfacet
facet normal -0.8191520442889821 -0.5735764363510599 0
outer loop
vertex 82.16977778440601 -114.7139380484321 4
vertex 81.66987298107783 -113.99999999999996 4
vertex 81.66987298107783 -113.99999999999996 0
endloop
endfacet
facet normal -0.8191520442889821 -0.5735764363510599 0
outer loop
vertex 82.16977778440601 -114.7139380484321 4
vertex 81.66987298107783 -113.99999999999996 0
vertex 82.16977778440601 -114.7139380484321 0
endloop
endfacet
facet normal -0.7071067811865485 -0.7071067811865467 0
outer loop
vertex 82.78606195156877 -115.33022221559344 4.000000000000002
vertex 82.16977778440601 -114.7139380484321 4
vertex 82.16977778440601 -114.7139380484321 0
endloop
endfacet
facet normal -0.7071067811865485 -0.7071067811865467 0
outer loop
vertex 82.78606195156877 -115.33022221559344 4.000000000000002
vertex 82.16977778440601 -114.7139380484321 0
vertex 82.78606195156877 -115.33022221559344 0
endloop
endfacet
facet normal -0.5735764363510745 -0.819152044288972 0
outer loop
vertex 83.50000000000043 -115.83012701892162 4.000000000000002
vertex 82.78606195156877 -115.33022221559344 4.000000000000002
vertex 82.78606195156877 -115.33022221559344 0
endloop
endfacet
facet normal -0.5735764363510745 -0.819152044288972 0
outer loop
vertex 83.50000000000043 -115.83012701892162 4.000000000000002
vertex 82.78606195156877 -115.33022221559344 0
vertex 83.50000000000043 -115.83012701892162 0
endloop
endfacet
facet normal -0.42261826174068745 -0.9063077870366557 0
outer loop
vertex 84.28989928337263 -116.19846310392751 4.000000000000002
vertex 83.50000000000043 -115.83012701892162 4.000000000000002
vertex 83.50000000000043 -115.83012701892162 0
endloop
endfacet
facet normal -0.42261826174068745 -0.9063077870366557 0
outer loop
vertex 84.28989928337263 -116.19846310392751 4.000000000000002
vertex 83.50000000000043 -115.83012701892162 0
vertex 84.28989928337263 -116.19846310392751 0
endloop
endfacet
facet normal -0.25881904510251297 -0.9659258262890704 0
outer loop
vertex 85.13175911166462 -116.42403876506381 4
vertex 84.28989928337263 -116.19846310392751 4.000000000000002
vertex 84.28989928337263 -116.19846310392751 0
endloop
endfacet
facet normal -0.25881904510251297 -0.9659258262890704 0
outer loop
vertex 85.13175911166462 -116.42403876506381 4
vertex 84.28989928337263 -116.19846310392751 0
vertex 85.13175911166462 -116.42403876506381 0
endloop
endfacet
facet normal -0.08715574274765463 -0.9961946980917459 0
outer loop
vertex 86.00000000000001 -116.49999999999993 4
vertex 85.13175911166462 -116.42403876506381 4
vertex 85.13175911166462 -116.42403876506381 0
endloop
endfacet
facet normal -0.08715574274765463 -0.9961946980917459 0
outer loop
vertex 86.00000000000001 -116.49999999999993 4
vertex 85.13175911166462 -116.42403876506381 0
vertex 86.00000000000001 -116.49999999999993 0
endloop
endfacet
facet normal 0 -1 0
outer loop
vertex 475.65 -116.5 0
vertex 475.65 -116.5 4
vertex 86.00000000000001 -116.49999999999993 4
endloop
endfacet
facet normal 0 -1 0
outer loop
vertex 475.65 -116.5 0
vertex 86.00000000000001 -116.49999999999993 4
vertex 86.00000000000001 -116.49999999999993 0
endloop
endfacet
facet normal 0.08715574274765463 -0.9961946980917459 0
outer loop
vertex 476.5182408883348 -116.4240387650629 4
vertex 475.65 -116.5 4
vertex 475.65 -116.5 0
endloop
endfacet
facet normal 0.08715574274765463 -0.9961946980917459 0
outer loop
vertex 476.5182408883348 -116.4240387650629 4
vertex 475.65 -116.5 0
vertex 476.5182408883348 -116.4240387650629 0
endloop
endfacet
facet normal 0.25881904510248555 -0.9659258262890777 0
outer loop
vertex 477.3601007166319 -116.19846310394287 4
vertex 476.5182408883348 -116.4240387650629 4
vertex 476.5182408883348 -116.4240387650629 0
endloop
endfacet
facet normal 0.25881904510248555 -0.9659258262890777 0
outer loop
vertex 477.3601007166319 -116.19846310394287 4
vertex 476.5182408883348 -116.4240387650629 0
vertex 477.3601007166319 -116.19846310394287 0
endloop
endfacet
facet normal 0.4226182617406892 -0.9063077870366548 0
outer loop
vertex 478.1500000000002 -115.83012701892241 4.000000000000002
vertex 477.3601007166319 -116.19846310394287 4
vertex 477.3601007166319 -116.19846310394287 0
endloop
endfacet
facet normal 0.4226182617406892 -0.9063077870366548 0
outer loop
vertex 478.1500000000002 -115.83012701892241 4.000000000000002
vertex 477.3601007166319 -116.19846310394287 0
vertex 478.1500000000002 -115.83012701892241 0
endloop
endfacet
facet normal 0.5735764363510599 -0.8191520442889821 0
outer loop
vertex 478.8639380484329 -115.3302222155952 4
vertex 478.1500000000002 -115.83012701892241 4.000000000000002
vertex 478.1500000000002 -115.83012701892241 0
endloop
endfacet
facet normal 0.5735764363510599 -0.8191520442889821 0
outer loop
vertex 478.8639380484329 -115.3302222155952 4
vertex 478.1500000000002 -115.83012701892241 0
vertex 478.8639380484329 -115.3302222155952 0
endloop
endfacet
facet normal 0.7071067811865476 -0.7071067811865476 0
outer loop
vertex 479.4802222155911 -114.71393804842887 4.000000000000002
vertex 478.8639380484329 -115.3302222155952 4
vertex 478.8639380484329 -115.3302222155952 0
endloop
endfacet
facet normal 0.7071067811865476 -0.7071067811865476 0
outer loop
vertex 479.4802222155911 -114.71393804842887 4.000000000000002
vertex 478.8639380484329 -115.3302222155952 0
vertex 479.4802222155911 -114.71393804842887 0
endloop
endfacet
facet normal 0.8191520442889915 -0.5735764363510465 0
outer loop
vertex 479.9801270189246 -114.00000000000168 4
vertex 479.4802222155911 -114.71393804842887 4.000000000000002
vertex 479.4802222155911 -114.71393804842887 0
endloop
endfacet
facet normal 0.8191520442889915 -0.5735764363510465 0
outer loop
vertex 479.9801270189246 -114.00000000000168 4
vertex 479.4802222155911 -114.71393804842887 0
vertex 479.9801270189246 -114.00000000000168 0
endloop
endfacet
facet normal 0.9063077870366497 -0.42261826174070005 0
outer loop
vertex 480.3484631039304 -113.21010071662876 4
vertex 479.9801270189246 -114.00000000000168 4
vertex 479.9801270189246 -114.00000000000168 0
endloop
endfacet
facet normal 0.9063077870366497 -0.42261826174070005 0
outer loop
vertex 480.3484631039304 -113.21010071662876 4
vertex 479.9801270189246 -114.00000000000168 0
vertex 480.3484631039304 -113.21010071662876 0
endloop
endfacet
facet normal 0 0 1
outer loop
vertex 480.5740387650613 -112.36824088833471 4
vertex 480.53873401749485 -112.5 4
vertex 480.3484631039304 -113.21010071662876 4
endloop
endfacet
facet normal 0 0 1
outer loop
vertex 480.5740387650613 -112.36824088833471 4
vertex 480.3484631039304 -113.21010071662876 4
vertex 480.3484631039304 -113.21010071662876 0
endloop
endfacet
facet normal 0 0 1
outer loop
vertex 480.5740387650613 -112.36824088833471 4
vertex 480.3484631039304 -113.21010071662876 0
vertex 480.5387340174948 -112.5 0
endloop
endfacet
facet normal 0 0 1
outer loop
vertex 480.5740387650613 -112.36824088833471 4
vertex 480.5387340174948 -112.5 0
vertex 480.5740387650613 -112.36824088833471 0
endloop
endfacet
facet normal 0.996194698091746 -0.08715574274765432 0
outer loop
vertex 480.6500000000019 -111.5000000000002 4.000000000000002
vertex 480.5740387650613 -112.36824088833471 4
vertex 480.5740387650613 -112.36824088833471 0
endloop
endfacet
facet normal 0.996194698091746 -0.08715574274765432 0
outer loop
vertex 480.6500000000019 -111.5000000000002 4.000000000000002
vertex 480.5740387650613 -112.36824088833471 0
vertex 480.6500000000019 -111.5000000000002 0
endloop
endfacet
facet normal 1 0 0
outer loop
vertex 480.65 5.75 0
vertex 480.65 5.75 4
vertex 480.6500000000019 -111.5000000000002 4.000000000000002
endloop
endfacet
facet normal 1 0 0
outer loop
vertex 480.65 5.75 0
vertex 480.6500000000019 -111.5000000000002 4.000000000000002
vertex 480.6500000000019 -111.5000000000002 0
endloop
endfacet
facet normal 0.996194698091746 0.08715574274765432 0
outer loop
vertex 480.57403876506095 6.61824088833464 4.000000000000002
vertex 480.65 5.75 4
vertex 480.65 5.75 0
endloop
endfacet
facet normal 0.996194698091746 0.08715574274765432 0
outer loop
vertex 480.57403876506095 6.61824088833464 4.000000000000002
vertex 480.65 5.75 0
vertex 480.57403876506095 6.61824088833464 0
endloop
endfacet
facet normal 0.9659258262890933 0.2588190451024272 0
outer loop
vertex 480.3484631039286 7.460100716628077 4
vertex 480.57403876506095 6.61824088833464 4.000000000000002
vertex 480.57403876506095 6.61824088833464 0
endloop
endfacet
facet normal 0.9659258262890933 0.2588190451024272 0
outer loop
vertex 480.3484631039286 7.460100716628077 4
vertex 480.57403876506095 6.61824088833464 0
vertex 480.3484631039286 7.460100716628077 0
endloop
endfacet
facet normal 0 0 1
outer loop
vertex 479.9801270189259 8.250000000001734 4
vertex 480.2132808479997 7.75 4
vertex 480.3484631039286 7.460100716628077 4
endloop
endfacet
facet normal 0 0 1
outer loop
vertex 479.9801270189259 8.250000000001734 4
vertex 480.3484631039286 7.460100716628077 4
vertex 480.3484631039286 7.460100716628077 0
endloop
endfacet
facet normal 0 0 1
outer loop
vertex 479.9801270189259 8.250000000001734 4
vertex 480.3484631039286 7.460100716628077 0
vertex 480.21328084799967 7.75 0
endloop
endfacet
facet normal 0 0 1
outer loop
vertex 479.9801270189259 8.250000000001734 4
vertex 480.21328084799967 7.75 0
vertex 479.9801270189259 8.250000000001734 0
endloop
endfacet
facet normal 0.8191520442889821 0.5735764363510599 0
outer loop
vertex 479.4802222156012 8.963938048437058 4
vertex 479.9801270189259 8.250000000001734 4
vertex 479.9801270189259 8.250000000001734 0
endloop
endfacet
facet normal 0.8191520442889821 0.5735764363510599 0
outer loop
vertex 479.4802222156012 8.963938048437058 4
vertex 479.9801270189259 8.250000000001734 0
vertex 479.4802222156012 8.963938048437058 0
endloop
endfacet
facet normal 0.7071067811865476 0.7071067811865476 0
outer loop
vertex 478.8639380484251 9.580222215587327 4.000000000000002
vertex 479.4802222156012 8.963938048437058 4
vertex 479.4802222156012 8.963938048437058 0
endloop
endfacet
facet normal 0.7071067811865476 0.7071067811865476 0
outer loop
vertex 478.8639380484251 9.580222215587327 4.000000000000002
vertex 479.4802222156012 8.963938048437058 0
vertex 478.8639380484251 9.580222215587327 0
endloop
endfacet
facet normal 0.5735764363510599 0.8191520442889821 0
outer loop
vertex 478.15000000000714 10.080127018932416 4
vertex 478.8639380484251 9.580222215587327 4.000000000000002
vertex 478.8639380484251 9.580222215587327 0
endloop
endfacet
facet normal 0.5735764363510599 0.8191520442889821 0
outer loop
vertex 478.15000000000714 10.080127018932416 4
vertex 478.8639380484251 9.580222215587327 0
vertex 478.15000000000714 10.080127018932416 0
endloop
endfacet
facet normal 0.42261826174069467 0.9063077870366524 0
outer loop
vertex 477.3601007166278 10.448463103928617 4
vertex 478.15000000000714 10.080127018932416 4
vertex 478.15000000000714 10.080127018932416 0
endloop
endfacet
facet normal 0.42261826174069467 0.9063077870366524 0
outer loop
vertex 477.3601007166278 10.448463103928617 4
vertex 478.15000000000714 10.080127018932416 0
vertex 477.3601007166278 10.448463103928617 0
endloop
endfacet
facet normal 0.25881904510251386 0.9659258262890702 0
outer loop
vertex 476.51824088833564 10.674038765064708 4.000000000000002
vertex 477.3601007166278 10.448463103928617 4
vertex 477.3601007166278 10.448463103928617 0
endloop
endfacet
facet normal 0.25881904510251386 0.9659258262890702 0
outer loop
vertex 476.51824088833564 10.674038765064708 4.000000000000002
vertex 477.3601007166278 10.448463103928617 0
vertex 476.51824088833564 10.674038765064708 0
endloop
endfacet
facet normal 0.08715574274765456 0.996194698091746 0
outer loop
vertex 475.6500000000004 10.750000000002672 4.000000000000002
vertex 476.51824088833564 10.674038765064708 4.000000000000002
vertex 476.51824088833564 10.674038765064708 0
endloop
endfacet
facet normal 0.08715574274765456 0.996194698091746 0
outer loop
vertex 475.6500000000004 10.750000000002672 4.000000000000002
vertex 476.51824088833564 10.674038765064708 0
vertex 475.6500000000004 10.750000000002672 0
endloop
endfacet
facet normal 0 1 0
outer loop
vertex 475.6500000000004 10.750000000002672 4.000000000000002
vertex 475.6500000000004 10.750000000002672 0
vertex 86 10.75 0
endloop
endfacet
facet normal 0 1 0
outer loop
vertex 475.6500000000004 10.750000000002672 4.000000000000002
vertex 86 10.75 0
vertex 86 10.75 4
endloop
endfacet
facet normal -0.0871557427476537 0.996194698091746 0
outer loop
vertex 85.1317591116651 10.674038765064036 4.000000000000002
vertex 86 10.75 4
vertex 86 10.75 0
endloop
endfacet
facet normal -0.0871557427476537 0.996194698091746 0
outer loop
vertex 85.1317591116651 10.674038765064036 4.000000000000002
vertex 86 10.75 0
vertex 85.1317591116651 10.674038765064036 0
endloop
endfacet
facet normal -0.258819045102527 0.9659258262890666 0
outer loop
vertex 84.28989928337245 10.448463103926601 4
vertex 85.1317591116651 10.674038765064036 4.000000000000002
vertex 85.1317591116651 10.674038765064036 0
endloop
endfacet
facet normal -0.258819045102527 0.9659258262890666 0
outer loop
vertex 84.28989928337245 10.448463103926601 4
vertex 85.1317591116651 10.674038765064036 0
vertex 84.28989928337245 10.448463103926601 0
endloop
endfacet
facet normal -0.4226182617407019 0.9063077870366489 0
outer loop
vertex 83.49999999999903 10.08012701892428 4.000000000000002
vertex 84.28989928337245 10.448463103926601 4
vertex 84.28989928337245 10.448463103926601 0
endloop
endfacet
facet normal -0.4226182617407019 0.9063077870366489 0
outer loop
vertex 83.49999999999903 10.08012701892428 4.000000000000002
vertex 84.28989928337245 10.448463103926601 0
vertex 83.49999999999903 10.08012701892428 0
endloop
endfacet
facet normal -0.5735764363510284 0.8191520442890042 0
outer loop
vertex 82.7860619515651 9.580222215598077 4
vertex 83.49999999999903 10.08012701892428 4.000000000000002
vertex 83.49999999999903 10.08012701892428 0
endloop
endfacet
facet normal -0.5735764363510284 0.8191520442890042 0
outer loop
vertex 82.7860619515651 9.580222215598077 4
vertex 83.49999999999903 10.08012701892428 0
vertex 82.7860619515651 9.580222215598077 0
endloop
endfacet
facet normal -0.7071067811865617 0.7071067811865333 0
outer loop
vertex 82.16977778440523 8.963938048432581 4
vertex 82.7860619515651 9.580222215598077 4
vertex 82.7860619515651 9.580222215598077 0
endloop
endfacet
facet normal -0.7071067811865617 0.7071067811865333 0
outer loop
vertex 82.16977778440523 8.963938048432581 4
vertex 82.7860619515651 9.580222215598077 0
vertex 82.16977778440523 8.963938048432581 0
endloop
endfacet
facet normal -0.8191520442889821 0.5735764363510599 0
outer loop
vertex 81.6698729810778 8.249999999999993 4
vertex 82.16977778440523 8.963938048432581 4
vertex 82.16977778440523 8.963938048432581 0
endloop
endfacet
facet normal -0.8191520442889821 0.5735764363510599 0
outer loop
vertex 81.6698729810778 8.249999999999993 4
vertex 82.16977778440523 8.963938048432581 0
vertex 81.6698729810778 8.249999999999993 0
endloop
endfacet
facet normal 0 0 1
outer loop
vertex 81.30153689606986 7.460100716628627 4
vertex 81.43671915200031 7.75 4
vertex 81.6698729810778 8.249999999999993 4
endloop
endfacet
facet normal 0 0 1
outer loop
vertex 81.30153689606986 7.460100716628627 4
vertex 81.6698729810778 8.249999999999993 4
vertex 81.6698729810778 8.249999999999993 0
endloop
endfacet
facet normal 0 0 1
outer loop
vertex 81.30153689606986 7.460100716628627 4
vertex 81.6698729810778 8.249999999999993 0
vertex 81.43671915200028 7.75 0
endloop
endfacet
facet normal 0 0 1
outer loop
vertex 81.30153689606986 7.460100716628627 4
vertex 81.43671915200028 7.75 0
vertex 81.30153689606986 7.460100716628627 0
endloop
endfacet
facet normal -0.9659258262890629 0.2588190451025413 0
outer loop
vertex 81.07596123493941 6.618240888334537 4.000000000000002
vertex 81.30153689606986 7.460100716628627 4
vertex 81.30153689606986 7.460100716628627 0
endloop
endfacet
facet normal -0.9659258262890629 0.2588190451025413 0
outer loop
vertex 81.07596123493941 6.618240888334537 4.000000000000002
vertex 81.30153689606986 7.460100716628627 0
vertex 81.07596123493941 6.618240888334537 0
endloop
endfacet
facet normal -0.996194698091746 0.08715574274765456 0
outer loop
vertex 80.99999999999983 5.750000000000018 4.000000000000002
vertex 81.07596123493941 6.618240888334537 4.000000000000002
vertex 81.07596123493941 6.618240888334537 0
endloop
endfacet
facet normal -0.996194698091746 0.08715574274765456 0
outer loop
vertex 80.99999999999983 5.750000000000018 4.000000000000002
vertex 81.07596123493941 6.618240888334537 0
vertex 80.99999999999983 5.750000000000018 0
endloop
endfacet
facet normal -1 0 0
outer loop
vertex 80.99999999999983 5.750000000000018 4.000000000000002
vertex 80.99999999999983 5.750000000000018 0
vertex 80.99999999999973 -111.50000000000006 0
endloop
endfacet
facet normal -1 0 0
outer loop
vertex 80.99999999999983 5.750000000000018 4.000000000000002
vertex 80.99999999999973 -111.50000000000006 0
vertex 80.99999999999973 -111.50000000000006 4.000000000000002
endloop
endfacet
facet normal 0 1 0
outer loop
vertex 474.15 -112.5 4
vertex 474.15 -112.5 0
vertex 87.5 -112.5 0
endloop
endfacet
facet normal 0 1 0
outer loop
vertex 474.15 -112.5 4
vertex 87.5 -112.5 0
vertex 87.5 -112.5 4
endloop
endfacet
facet normal -1 0 0
outer loop
vertex 474.15 7.75 4
vertex 474.15 7.75 0
vertex 474.15 -112.5 0
endloop
endfacet
facet normal -1 0 0
outer loop
vertex 474.15 7.75 4
vertex 474.15 -112.5 0
vertex 474.15 -112.5 4
endloop
endfacet
facet normal 0 -1 0
outer loop
vertex 474.15 7.75 0
vertex 474.15 7.75 4
vertex 87.5 7.75 4
endloop
endfacet
facet normal 0 -1 0
outer loop
vertex 474.15 7.75 0
vertex 87.5 7.75 4
vertex 87.5 7.75 0
endloop
endfacet
facet normal 1 0 0
outer loop
vertex 87.5 7.75 0
vertex 87.5 7.75 4
vertex 87.5 -112.5 4
endloop
endfacet
facet normal 1 0 0
outer loop
vertex 87.5 7.75 0
vertex 87.5 -112.5 4
vertex 87.5 -112.5 0
endloop
endfacet
facet normal 0 0 -1
outer loop
vertex 475.6500000000004 10.750000000002672 0
vertex 476.51824088833564 10.674038765064708 0
vertex 477.3601007166278 10.448463103928617 0
endloop
endfacet
facet normal 0 0 -1
outer loop
vertex 475.6500000000004 10.750000000002672 0
vertex 477.3601007166278 10.448463103928617 0
vertex 478.15000000000714 10.080127018932416 0
endloop
endfacet
facet normal 0 0 -1
outer loop
vertex 475.6500000000004 10.750000000002672 0
vertex 478.15000000000714 10.080127018932416 0
vertex 478.8639380484251 9.580222215587327 0
endloop
endfacet
facet normal 0 0 -1
outer loop
vertex 475.6500000000004 10.750000000002672 0
vertex 478.8639380484251 9.580222215587327 0
vertex 479.4802222156012 8.963938048437058 0
endloop
endfacet
facet normal 0 0 -1
outer loop
vertex 475.6500000000004 10.750000000002672 0
vertex 479.4802222156012 8.963938048437058 0
vertex 479.9801270189259 8.250000000001734 0
endloop
endfacet
facet normal 0 0 -1
outer loop
vertex 475.6500000000004 10.750000000002672 0
vertex 479.9801270189259 8.250000000001734 0
vertex 480.21328084799967 7.75 0
endloop
endfacet
facet normal 0 0 -1
outer loop
vertex 475.6500000000004 10.750000000002672 0
vertex 480.21328084799967 7.75 0
vertex 474.15 7.75 0
endloop
endfacet
facet normal 0 0 -1
outer loop
vertex 475.6500000000004 10.750000000002672 0
vertex 474.15 7.75 0
vertex 87.5 7.75 0
endloop
endfacet
facet normal 0 0 -1
outer loop
vertex 475.6500000000004 10.750000000002672 0
vertex 87.5 7.75 0
vertex 81.43671915200028 7.75 0
endloop
endfacet
facet normal 0 0 -1
outer loop
vertex 475.6500000000004 10.750000000002672 0
vertex 81.43671915200028 7.75 0
vertex 81.6698729810778 8.249999999999993 0
endloop
endfacet
facet normal 0 0 -1
outer loop
vertex 475.6500000000004 10.750000000002672 0
vertex 81.6698729810778 8.249999999999993 0
vertex 82.16977778440523 8.963938048432581 0
endloop
endfacet
facet normal 0 0 -1
outer loop
vertex 475.6500000000004 10.750000000002672 0
vertex 82.16977778440523 8.963938048432581 0
vertex 82.7860619515651 9.580222215598077 0
endloop
endfacet
facet normal 0 0 -1
outer loop
vertex 475.6500000000004 10.750000000002672 0
vertex 82.7860619515651 9.580222215598077 0
vertex 83.49999999999903 10.08012701892428 0
endloop
endfacet
facet normal 0 0 -1
outer loop
vertex 475.6500000000004 10.750000000002672 0
vertex 83.49999999999903 10.08012701892428 0
vertex 84.28989928337245 10.448463103926601 0
endloop
endfacet
facet normal 0 0 -1
outer loop
vertex 475.6500000000004 10.750000000002672 0
vertex 84.28989928337245 10.448463103926601 0
vertex 85.1317591116651 10.674038765064036 0
endloop
endfacet
facet normal 0 0 -1
outer loop
vertex 475.6500000000004 10.750000000002672 0
vertex 85.1317591116651 10.674038765064036 0
vertex 86 10.75 0
endloop
endfacet
facet normal 0 0 -1
outer loop
vertex 87.5 7.75 0
vertex 87.5 -112.5 0
vertex 81.11126598250515 -112.5 0
endloop
endfacet
facet normal 0 0 -1
outer loop
vertex 87.5 7.75 0
vertex 81.11126598250515 -112.5 0
vertex 81.07596123493869 -112.36824088833471 0
endloop
endfacet
facet normal 0 0 -1
outer loop
vertex 87.5 7.75 0
vertex 81.07596123493869 -112.36824088833471 0
vertex 80.99999999999973 -111.50000000000006 0
endloop
endfacet
facet normal 0 0 -1
outer loop
vertex 87.5 7.75 0
vertex 80.99999999999973 -111.50000000000006 0
vertex 80.99999999999983 5.750000000000018 0
endloop
endfacet
facet normal 0 0 -1
outer loop
vertex 87.5 7.75 0
vertex 80.99999999999983 5.750000000000018 0
vertex 81.07596123493941 6.618240888334537 0
endloop
endfacet
facet normal 0 0 -1
outer loop
vertex 87.5 7.75 0
vertex 81.07596123493941 6.618240888334537 0
vertex 81.30153689606986 7.460100716628627 0
endloop
endfacet
facet normal 0 0 -1
outer loop
vertex 87.5 7.75 0
vertex 81.30153689606986 7.460100716628627 0
vertex 81.43671915200028 7.75 0
endloop
endfacet
facet normal 0 0 -1
outer loop
vertex 480.21328084799967 7.75 0
vertex 480.3484631039286 7.460100716628077 0
vertex 480.57403876506095 6.61824088833464 0
endloop
endfacet
facet normal 0 0 -1
outer loop
vertex 480.21328084799967 7.75 0
vertex 480.57403876506095 6.61824088833464 0
vertex 480.65 5.75 0
endloop
endfacet
facet normal 0 0 -1
outer loop
vertex 480.21328084799967 7.75 0
vertex 480.65 5.75 0
vertex 480.6500000000019 -111.5000000000002 0
endloop
endfacet
facet normal 0 0 -1
outer loop
vertex 480.21328084799967 7.75 0
vertex 480.6500000000019 -111.5000000000002 0
vertex 480.5740387650613 -112.36824088833471 0
endloop
endfacet
facet normal 0 0 -1
outer loop
vertex 480.21328084799967 7.75 0
vertex 480.5740387650613 -112.36824088833471 0
vertex 480.5387340174948 -112.5 0
endloop
endfacet
facet normal 0 0 -1
outer loop
vertex 480.21328084799967 7.75 0
vertex 480.5387340174948 -112.5 0
vertex 474.15 -112.5 0
endloop
endfacet
facet normal 0 0 -1
outer loop
vertex 480.21328084799967 7.75 0
vertex 474.15 -112.5 0
vertex 474.15 7.75 0
endloop
endfacet
facet normal 0 0 -1
outer loop
vertex 87.5 -112.5 0
vertex 474.15 -112.5 0
vertex 480.5387340174948 -112.5 0
endloop
endfacet
facet normal 0 0 -1
outer loop
vertex 87.5 -112.5 0
vertex 480.5387340174948 -112.5 0
vertex 480.3484631039304 -113.21010071662876 0
endloop
endfacet
facet normal 0 0 -1
outer loop
vertex 87.5 -112.5 0
vertex 480.3484631039304 -113.21010071662876 0
vertex 479.9801270189246 -114.00000000000168 0
endloop
endfacet
facet normal 0 0 -1
outer loop
vertex 87.5 -112.5 0
vertex 479.9801270189246 -114.00000000000168 0
vertex 479.4802222155911 -114.71393804842887 0
endloop
endfacet
facet normal 0 0 -1
outer loop
vertex 87.5 -112.5 0
vertex 479.4802222155911 -114.71393804842887 0
vertex 478.8639380484329 -115.3302222155952 0
endloop
endfacet
facet normal 0 0 -1
outer loop
vertex 87.5 -112.5 0
vertex 478.8639380484329 -115.3302222155952 0
vertex 478.1500000000002 -115.83012701892241 0
endloop
endfacet
facet normal 0 0 -1
outer loop
vertex 87.5 -112.5 0
vertex 478.1500000000002 -115.83012701892241 0
vertex 477.3601007166319 -116.19846310394287 0
endloop
endfacet
facet normal 0 0 -1
outer loop
vertex 87.5 -112.5 0
vertex 477.3601007166319 -116.19846310394287 0
vertex 476.5182408883348 -116.4240387650629 0
endloop
endfacet
facet normal 0 0 -1
outer loop
vertex 87.5 -112.5 0
vertex 476.5182408883348 -116.4240387650629 0
vertex 475.65 -116.5 0
endloop
endfacet
facet normal 0 0 -1
outer loop
vertex 87.5 -112.5 0
vertex 475.65 -116.5 0
vertex 86.00000000000001 -116.49999999999993 0
endloop
endfacet
facet normal 0 0 -1
outer loop
vertex 87.5 -112.5 0
vertex 86.00000000000001 -116.49999999999993 0
vertex 85.13175911166462 -116.42403876506381 0
endloop
endfacet
facet normal 0 0 -1
outer loop
vertex 87.5 -112.5 0
vertex 85.13175911166462 -116.42403876506381 0
vertex 84.28989928337263 -116.19846310392751 0
endloop
endfacet
facet normal 0 0 -1
outer loop
vertex 87.5 -112.5 0
vertex 84.28989928337263 -116.19846310392751 0
vertex 83.50000000000043 -115.83012701892162 0
endloop
endfacet
facet normal 0 0 -1
outer loop
vertex 87.5 -112.5 0
vertex 83.50000000000043 -115.83012701892162 0
vertex 82.78606195156877 -115.33022221559344 0
endloop
endfacet
facet normal 0 0 -1
outer loop
vertex 87.5 -112.5 0
vertex 82.78606195156877 -115.33022221559344 0
vertex 82.16977778440601 -114.7139380484321 0
endloop
endfacet
facet normal 0 0 -1
outer loop
vertex 87.5 -112.5 0
vertex 82.16977778440601 -114.7139380484321 0
vertex 81.66987298107783 -113.99999999999996 0
endloop
endfacet
facet normal 0 0 -1
outer loop
vertex 87.5 -112.5 0
vertex 81.66987298107783 -113.99999999999996 0
vertex 81.3015368960692 -113.21010071662867 0
endloop
endfacet
facet normal 0 0 -1
outer loop
vertex 87.5 -112.5 0
vertex 81.3015368960692 -113.21010071662867 0
vertex 81.11126598250515 -112.5 0
endloop
endfacet
facet normal 0 0 1
outer loop
vertex 475.65 -116.5 4
vertex 476.5182408883348 -116.4240387650629 4
vertex 477.3601007166319 -116.19846310394287 4
endloop
endfacet
facet normal 0 0 1
outer loop
vertex 475.65 -116.5 4
vertex 477.3601007166319 -116.19846310394287 4
vertex 478.1500000000002 -115.83012701892241 4.000000000000002
endloop
endfacet
facet normal 0 0 1
outer loop
vertex 475.65 -116.5 4
vertex 478.1500000000002 -115.83012701892241 4.000000000000002
vertex 478.8639380484329 -115.3302222155952 4
endloop
endfacet
facet normal 0 0 1
outer loop
vertex 475.65 -116.5 4
vertex 478.8639380484329 -115.3302222155952 4
vertex 479.4802222155911 -114.71393804842887 4.000000000000002
endloop
endfacet
facet normal 0 0 1
outer loop
vertex 475.65 -116.5 4
vertex 479.4802222155911 -114.71393804842887 4.000000000000002
vertex 479.9801270189246 -114.00000000000168 4
endloop
endfacet
facet normal 0 0 1
outer loop
vertex 475.65 -116.5 4
vertex 479.9801270189246 -114.00000000000168 4
vertex 480.3484631039304 -113.21010071662876 4
endloop
endfacet
facet normal 0 0 1
outer loop
vertex 475.65 -116.5 4
vertex 480.3484631039304 -113.21010071662876 4
vertex 480.53873401749485 -112.5 4
endloop
endfacet
facet normal 0 0 1
outer loop
vertex 475.65 -116.5 4
vertex 480.53873401749485 -112.5 4
vertex 474.15 -112.5 4
endloop
endfacet
facet normal 0 0 1
outer loop
vertex 475.65 -116.5 4
vertex 474.15 -112.5 4
vertex 87.5 -112.5 4
endloop
endfacet
facet normal 0 0 1
outer loop
vertex 475.65 -116.5 4
vertex 87.5 -112.5 4
vertex 81.11126598250515 -112.5 4
endloop
endfacet
facet normal 0 0 1
outer loop
vertex 475.65 -116.5 4
vertex 81.11126598250515 -112.5 4
vertex 81.3015368960692 -113.21010071662867 4
endloop
endfacet
facet normal 0 0 1
outer loop
vertex 475.65 -116.5 4
vertex 81.3015368960692 -113.21010071662867 4
vertex 81.66987298107783 -113.99999999999996 4
endloop
endfacet
facet normal 0 0 1
outer loop
vertex 475.65 -116.5 4
vertex 81.66987298107783 -113.99999999999996 4
vertex 82.16977778440601 -114.7139380484321 4
endloop
endfacet
facet normal 0 0 1
outer loop
vertex 475.65 -116.5 4
vertex 82.16977778440601 -114.7139380484321 4
vertex 82.78606195156877 -115.33022221559344 4.000000000000002
endloop
endfacet
facet normal 0 0 1
outer loop
vertex 475.65 -116.5 4
vertex 82.78606195156877 -115.33022221559344 4.000000000000002
vertex 83.50000000000043 -115.83012701892162 4.000000000000002
endloop
endfacet
facet normal 0 0 1
outer loop
vertex 475.65 -116.5 4
vertex 83.50000000000043 -115.83012701892162 4.000000000000002
vertex 84.28989928337263 -116.19846310392751 4.000000000000002
endloop
endfacet
facet normal 0 0 1
outer loop
vertex 475.65 -116.5 4
vertex 84.28989928337263 -116.19846310392751 4.000000000000002
vertex 85.13175911166462 -116.42403876506381 4
endloop
endfacet
facet normal 0 0 1
outer loop
vertex 475.65 -116.5 4
vertex 85.13175911166462 -116.42403876506381 4
vertex 86.00000000000001 -116.49999999999993 4
endloop
endfacet
facet normal 0 0 1
outer loop
vertex 87.5 -112.5 4
vertex 87.5 7.75 4
vertex 81.43671915200031 7.75 4
endloop
endfacet
facet normal 0 0 1
outer loop
vertex 87.5 -112.5 4
vertex 81.43671915200031 7.75 4
vertex 81.30153689606986 7.460100716628627 4
endloop
endfacet
facet normal 0 0 1
outer loop
vertex 87.5 -112.5 4
vertex 81.30153689606986 7.460100716628627 4
vertex 81.07596123493941 6.618240888334537 4.000000000000002
endloop
endfacet
facet normal 0 0 1
outer loop
vertex 87.5 -112.5 4
vertex 81.07596123493941 6.618240888334537 4.000000000000002
vertex 80.99999999999983 5.750000000000018 4.000000000000002
endloop
endfacet
facet normal 0 0 1
outer loop
vertex 87.5 -112.5 4
vertex 80.99999999999983 5.750000000000018 4.000000000000002
vertex 80.99999999999973 -111.50000000000006 4.000000000000002
endloop
endfacet
facet normal 0 0 1
outer loop
vertex 87.5 -112.5 4
vertex 80.99999999999973 -111.50000000000006 4.000000000000002
vertex 81.07596123493869 -112.36824088833471 4.000000000000002
endloop
endfacet
facet normal 0 0 1
outer loop
vertex 87.5 -112.5 4
vertex 81.07596123493869 -112.36824088833471 4.000000000000002
vertex 81.11126598250515 -112.5 4
endloop
endfacet
facet normal 0 0 1
outer loop
vertex 480.53873401749485 -112.5 4
vertex 480.5740387650613 -112.36824088833471 4
vertex 480.6500000000019 -111.5000000000002 4.000000000000002
endloop
endfacet
facet normal 0 0 1
outer loop
vertex 480.53873401749485 -112.5 4
vertex 480.6500000000019 -111.5000000000002 4.000000000000002
vertex 480.65 5.75 4
endloop
endfacet
facet normal 0 0 1
outer loop
vertex 480.53873401749485 -112.5 4
vertex 480.65 5.75 4
vertex 480.57403876506095 6.61824088833464 4.000000000000002
endloop
endfacet
facet normal 0 0 1
outer loop
vertex 480.53873401749485 -112.5 4
vertex 480.57403876506095 6.61824088833464 4.000000000000002
vertex 480.3484631039286 7.460100716628077 4
endloop
endfacet
facet normal 0 0 1
outer loop
vertex 480.53873401749485 -112.5 4
vertex 480.3484631039286 7.460100716628077 4
vertex 480.2132808479997 7.75 4
endloop
endfacet
facet normal 0 0 1
outer loop
vertex 480.53873401749485 -112.5 4
vertex 480.2132808479997 7.75 4
vertex 474.15 7.75 4
endloop
endfacet
facet normal 0 0 1
outer loop
vertex 480.53873401749485 -112.5 4
vertex 474.15 7.75 4
vertex 474.15 -112.5 4
endloop
endfacet
facet normal 0 0 1
outer loop
vertex 87.5 7.75 4
vertex 474.15 7.75 4
vertex 480.2132808479997 7.75 4
endloop
endfacet
facet normal 0 0 1
outer loop
vertex 87.5 7.75 4
vertex 480.2132808479997 7.75 4
vertex 479.9801270189259 8.250000000001734 4
endloop
endfacet
facet normal 0 0 1
outer loop
vertex 87.5 7.75 4
vertex 479.9801270189259 8.250000000001734 4
vertex 479.4802222156012 8.963938048437058 4
endloop
endfacet
facet normal 0 0 1
outer loop
vertex 87.5 7.75 4
vertex 479.4802222156012 8.963938048437058 4
vertex 478.8639380484251 9.580222215587327 4.000000000000002
endloop
endfacet
facet normal 0 0 1
outer loop
vertex 87.5 7.75 4
vertex 478.8639380484251 9.580222215587327 4.000000000000002
vertex 478.15000000000714 10.080127018932416 4
endloop
endfacet
facet normal 0 0 1
outer loop
vertex 87.5 7.75 4
vertex 478.15000000000714 10.080127018932416 4
vertex 477.3601007166278 10.448463103928617 4
endloop
endfacet
facet normal 0 0 1
outer loop
vertex 87.5 7.75 4
vertex 477.3601007166278 10.448463103928617 4
vertex 476.51824088833564 10.674038765064708 4.000000000000002
endloop
endfacet
facet normal 0 0 1
outer loop
vertex 87.5 7.75 4
vertex 476.51824088833564 10.674038765064708 4.000000000000002
vertex 475.6500000000004 10.750000000002672 4.000000000000002
endloop
endfacet
facet normal 0 0 1
outer loop
vertex 87.5 7.75 4
vertex 475.6500000000004 10.750000000002672 4.000000000000002
vertex 86 10.75 4
endloop
endfacet
facet normal 0 0 1
outer loop
vertex 87.5 7.75 4
vertex 86 10.75 4
vertex 85.1317591116651 10.674038765064036 4.000000000000002
endloop
endfacet
facet normal 0 0 1
outer loop
vertex 87.5 7.75 4
vertex 85.1317591116651 10.674038765064036 4.000000000000002
vertex 84.28989928337245 10.448463103926601 4
endloop
endfacet
facet normal 0 0 1
outer loop
vertex 87.5 7.75 4
vertex 84.28989928337245 10.448463103926601 4
vertex 83.49999999999903 10.08012701892428 4.000000000000002
endloop
endfacet
facet normal 0 0 1
outer loop
vertex 87.5 7.75 4
vertex 83.49999999999903 10.08012701892428 4.000000000000002
vertex 82.7860619515651 9.580222215598077 4
endloop
endfacet
facet normal 0 0 1
outer loop
vertex 87.5 7.75 4
vertex 82.7860619515651 9.580222215598077 4
vertex 82.16977778440523 8.963938048432581 4
endloop
endfacet
facet normal 0 0 1
outer loop
vertex 87.5 7.75 4
vertex 82.16977778440523 8.963938048432581 4
vertex 81.6698729810778 8.249999999999993 4
endloop
endfacet
facet normal 0 0 1
outer loop
vertex 87.5 7.75 4
vertex 81.6698729810778 8.249999999999993 4
vertex 81.43671915200031 7.75 4
endloop
endfacet
endsolid csg.js
