0
SECTION
2
HEADER
9
$INSUNITS
70
4
0
ENDSEC
0
SECTION
2
TABLES
0
TABLE
2
LTYPE
0
LTYPE
72
65
70
64
2
CONTINUOUS
3
______
73
0
40
0
0
ENDTAB
0
TABLE
2
LAYER
0
ENDTAB
0
ENDSEC
0
SECTION
2
ENTITIES
0
LINE
8
0
10
93
20
-107
11
107
21
-107
0
LINE
8
0
10
107
20
-107
11
107
21
-93
0
LINE
8
0
10
107
20
-93
11
93
21
-93
0
LINE
8
0
10
93
20
-93
11
93
21
-107
0
LINE
8
0
10
93
20
-87.95
11
107
21
-87.95
0
LINE
8
0
10
107
20
-87.95
11
107
21
-73.95
0
LINE
8
0
10
107
20
-73.95
11
93
21
-73.95
0
LINE
8
0
10
93
20
-73.95
11
93
21
-87.95
0
LINE
8
0
10
93
20
-68.9
11
107
21
-68.9
0
LINE
8
0
10
107
20
-68.9
11
107
21
-54.9
0
LINE
8
0
10
107
20
-54.9
11
93
21
-54.9
0
LINE
8
0
10
93
20
-54.9
11
93
21
-68.9
0
LINE
8
0
10
93
20
-49.85
11
107
21
-49.85
0
LINE
8
0
10
107
20
-49.85
11
107
21
-35.85
0
LINE
8
0
10
107
20
-35.85
11
93
21
-35.85
0
LINE
8
0
10
93
20
-35.85
11
93
21
-49.85
0
LINE
8
0
10
93
20
-30.8
11
107
21
-30.8
0
LINE
8
0
10
107
20
-30.8
11
107
21
-16.8
0
LINE
8
0
10
107
20
-16.8
11
93
21
-16.8
0
LINE
8
0
10
93
20
-16.8
11
93
21
-30.8
0
LINE
8
0
10
93
20
-11.75
11
107
21
-11.75
0
LINE
8
0
10
107
20
-11.75
11
107
21
2.25
0
LINE
8
0
10
107
20
2.25
11
93
21
2.25
0
LINE
8
0
10
93
20
2.25
11
93
21
-11.75
0
LINE
8
0
10
112.05
20
-107
11
126.05
21
-107
0
LINE
8
0
10
126.05
20
-107
11
126.05
21
-93
0
LINE
8
0
10
126.05
20
-93
11
112.05
21
-93
0
LINE
8
0
10
112.05
20
-93
11
112.05
21
-107
0
LINE
8
0
10
112.05
20
-87.95
11
126.05
21
-87.95
0
LINE
8
0
10
126.05
20
-87.95
11
126.05
21
-73.95
0
LINE
8
0
10
126.05
20
-73.95
11
112.05
21
-73.95
0
LINE
8
0
10
112.05
20
-73.95
11
112.05
21
-87.95
0
LINE
8
0
10
112.05
20
-68.9
11
126.05
21
-68.9
0
LINE
8
0
10
126.05
20
-68.9
11
126.05
21
-54.9
0
LINE
8
0
10
126.05
20
-54.9
11
112.05
21
-54.9
0
LINE
8
0
10
112.05
20
-54.9
11
112.05
21
-68.9
0
LINE
8
0
10
112.05
20
-49.85
11
126.05
21
-49.85
0
LINE
8
0
10
126.05
20
-49.85
11
126.05
21
-35.85
0
LINE
8
0
10
126.05
20
-35.85
11
112.05
21
-35.85
0
LINE
8
0
10
112.05
20
-35.85
11
112.05
21
-49.85
0
LINE
8
0
10
112.05
20
-30.8
11
126.05
21
-30.8
0
LINE
8
0
10
126.05
20
-30.8
11
126.05
21
-16.8
0
LINE
8
0
10
126.05
20
-16.8
11
112.05
21
-16.8
0
LINE
8
0
10
112.05
20
-16.8
11
112.05
21
-30.8
0
LINE
8
0
10
112.05
20
-11.75
11
126.05
21
-11.75
0
LINE
8
0
10
126.05
20
-11.75
11
126.05
21
2.25
0
LINE
8
0
10
126.05
20
2.25
11
112.05
21
2.25
0
LINE
8
0
10
112.05
20
2.25
11
112.05
21
-11.75
0
LINE
8
0
10
131.1
20
-107
11
145.1
21
-107
0
LINE
8
0
10
145.1
20
-107
11
145.1
21
-93
0
LINE
8
0
10
145.1
20
-93
11
131.1
21
-93
0
LINE
8
0
10
131.1
20
-93
11
131.1
21
-107
0
LINE
8
0
10
131.1
20
-87.95
11
145.1
21
-87.95
0
LINE
8
0
10
145.1
20
-87.95
11
145.1
21
-73.95
0
LINE
8
0
10
145.1
20
-73.95
11
131.1
21
-73.95
0
LINE
8
0
10
131.1
20
-73.95
11
131.1
21
-87.95
0
LINE
8
0
10
131.1
20
-68.9
11
145.1
21
-68.9
0
LINE
8
0
10
145.1
20
-68.9
11
145.1
21
-54.9
0
LINE
8
0
10
145.1
20
-54.9
11
131.1
21
-54.9
0
LINE
8
0
10
131.1
20
-54.9
11
131.1
21
-68.9
0
LINE
8
0
10
131.1
20
-49.85
11
145.1
21
-49.85
0
LINE
8
0
10
145.1
20
-49.85
11
145.1
21
-35.85
0
LINE
8
0
10
145.1
20
-35.85
11
131.1
21
-35.85
0
LINE
8
0
10
131.1
20
-35.85
11
131.1
21
-49.85
0
LINE
8
0
10
131.1
20
-30.8
11
145.1
21
-30.8
0
LINE
8
0
10
145.1
20
-30.8
11
145.1
21
-16.8
0
LINE
8
0
10
145.1
20
-16.8
11
131.1
21
-16.8
0
LINE
8
0
10
131.1
20
-16.8
11
131.1
21
-30.8
0
LINE
8
0
10
131.1
20
-11.75
11
145.1
21
-11.75
0
LINE
8
0
10
145.1
20
-11.75
11
145.1
21
2.25
0
LINE
8
0
10
145.1
20
2.25
11
131.1
21
2.25
0
LINE
8
0
10
131.1
20
2.25
11
131.1
21
-11.75
0
LINE
8
0
10
150.15
20
-107
11
164.15
21
-107
0
LINE
8
0
10
164.15
20
-107
11
164.15
21
-93
0
LINE
8
0
10
164.15
20
-93
11
150.15
21
-93
0
LINE
8
0
10
150.15
20
-93
11
150.15
21
-107
0
LINE
8
0
10
150.15
20
-87.95
11
164.15
21
-87.95
0
LINE
8
0
10
164.15
20
-87.95
11
164.15
21
-73.95
0
LINE
8
0
10
164.15
20
-73.95
11
150.15
21
-73.95
0
LINE
8
0
10
150.15
20
-73.95
11
150.15
21
-87.95
0
LINE
8
0
10
150.15
20
-68.9
11
164.15
21
-68.9
0
LINE
8
0
10
164.15
20
-68.9
11
164.15
21
-54.9
0
LINE
8
0
10
164.15
20
-54.9
11
150.15
21
-54.9
0
LINE
8
0
10
150.15
20
-54.9
11
150.15
21
-68.9
0
LINE
8
0
10
150.15
20
-49.85
11
164.15
21
-49.85
0
LINE
8
0
10
164.15
20
-49.85
11
164.15
21
-35.85
0
LINE
8
0
10
164.15
20
-35.85
11
150.15
21
-35.85
0
LINE
8
0
10
150.15
20
-35.85
11
150.15
21
-49.85
0
LINE
8
0
10
150.15
20
-30.8
11
164.15
21
-30.8
0
LINE
8
0
10
164.15
20
-30.8
11
164.15
21
-16.8
0
LINE
8
0
10
164.15
20
-16.8
11
150.15
21
-16.8
0
LINE
8
0
10
150.15
20
-16.8
11
150.15
21
-30.8
0
LINE
8
0
10
150.15
20
-11.75
11
164.15
21
-11.75
0
LINE
8
0
10
164.15
20
-11.75
11
164.15
21
2.25
0
LINE
8
0
10
164.15
20
2.25
11
150.15
21
2.25
0
LINE
8
0
10
150.15
20
2.25
11
150.15
21
-11.75
0
LINE
8
0
10
169.2
20
-87.95
11
183.2
21
-87.95
0
LINE
8
0
10
183.2
20
-87.95
11
183.2
21
-73.95
0
LINE
8
0
10
183.2
20
-73.95
11
169.2
21
-73.95
0
LINE
8
0
10
169.2
20
-73.95
11
169.2
21
-87.95
0
LINE
8
0
10
169.2
20
-68.9
11
183.2
21
-68.9
0
LINE
8
0
10
183.2
20
-68.9
11
183.2
21
-54.9
0
LINE
8
0
10
183.2
20
-54.9
11
169.2
21
-54.9
0
LINE
8
0
10
169.2
20
-54.9
11
169.2
21
-68.9
0
LINE
8
0
10
169.2
20
-49.85
11
183.2
21
-49.85
0
LINE
8
0
10
183.2
20
-49.85
11
183.2
21
-35.85
0
LINE
8
0
10
183.2
20
-35.85
11
169.2
21
-35.85
0
LINE
8
0
10
169.2
20
-35.85
11
169.2
21
-49.85
0
LINE
8
0
10
169.2
20
-30.8
11
183.2
21
-30.8
0
LINE
8
0
10
183.2
20
-30.8
11
183.2
21
-16.8
0
LINE
8
0
10
183.2
20
-16.8
11
169.2
21
-16.8
0
LINE
8
0
10
169.2
20
-16.8
11
169.2
21
-30.8
0
LINE
8
0
10
169.2
20
-11.75
11
183.2
21
-11.75
0
LINE
8
0
10
183.2
20
-11.75
11
183.2
21
2.25
0
LINE
8
0
10
183.2
20
2.25
11
169.2
21
2.25
0
LINE
8
0
10
169.2
20
2.25
11
169.2
21
-11.75
0
LINE
8
0
10
188.25
20
-87.95
11
202.25
21
-87.95
0
LINE
8
0
10
202.25
20
-87.95
11
202.25
21
-73.95
0
LINE
8
0
10
202.25
20
-73.95
11
188.25
21
-73.95
0
LINE
8
0
10
188.25
20
-73.95
11
188.25
21
-87.95
0
LINE
8
0
10
188.25
20
-68.9
11
202.25
21
-68.9
0
LINE
8
0
10
202.25
20
-68.9
11
202.25
21
-54.9
0
LINE
8
0
10
202.25
20
-54.9
11
188.25
21
-54.9
0
LINE
8
0
10
188.25
20
-54.9
11
188.25
21
-68.9
0
LINE
8
0
10
188.25
20
-49.85
11
202.25
21
-49.85
0
LINE
8
0
10
202.25
20
-49.85
11
202.25
21
-35.85
0
LINE
8
0
10
202.25
20
-35.85
11
188.25
21
-35.85
0
LINE
8
0
10
188.25
20
-35.85
11
188.25
21
-49.85
0
LINE
8
0
10
188.25
20
-30.8
11
202.25
21
-30.8
0
LINE
8
0
10
202.25
20
-30.8
11
202.25
21
-16.8
0
LINE
8
0
10
202.25
20
-16.8
11
188.25
21
-16.8
0
LINE
8
0
10
188.25
20
-16.8
11
188.25
21
-30.8
0
LINE
8
0
10
188.25
20
-11.75
11
202.25
21
-11.75
0
LINE
8
0
10
202.25
20
-11.75
11
202.25
21
2.25
0
LINE
8
0
10
202.25
20
2.25
11
188.25
21
2.25
0
LINE
8
0
10
188.25
20
2.25
11
188.25
21
-11.75
0
LINE
8
0
10
302.25
20
-87.95
11
316.25
21
-87.95
0
LINE
8
0
10
316.25
20
-87.95
11
316.25
21
-73.95
0
LINE
8
0
10
316.25
20
-73.95
11
302.25
21
-73.95
0
LINE
8
0
10
302.25
20
-73.95
11
302.25
21
-87.95
0
LINE
8
0
10
302.25
20
-68.9
11
316.25
21
-68.9
0
LINE
8
0
10
316.25
20
-68.9
11
316.25
21
-54.9
0
LINE
8
0
10
316.25
20
-54.9
11
302.25
21
-54.9
0
LINE
8
0
10
302.25
20
-54.9
11
302.25
21
-68.9
0
LINE
8
0
10
302.25
20
-49.85
11
316.25
21
-49.85
0
LINE
8
0
10
316.25
20
-49.85
11
316.25
21
-35.85
0
LINE
8
0
10
316.25
20
-35.85
11
302.25
21
-35.85
0
LINE
8
0
10
302.25
20
-35.85
11
302.25
21
-49.85
0
LINE
8
0
10
302.25
20
-30.8
11
316.25
21
-30.8
0
LINE
8
0
10
316.25
20
-30.8
11
316.25
21
-16.8
0
LINE
8
0
10
316.25
20
-16.8
11
302.25
21
-16.8
0
LINE
8
0
10
302.25
20
-16.8
11
302.25
21
-30.8
0
LINE
8
0
10
302.25
20
-11.75
11
316.25
21
-11.75
0
LINE
8
0
10
316.25
20
-11.75
11
316.25
21
2.25
0
LINE
8
0
10
316.25
20
2.25
11
302.25
21
2.25
0
LINE
8
0
10
302.25
20
2.25
11
302.25
21
-11.75
0
LINE
8
0
10
321.3
20
-87.95
11
335.3
21
-87.95
0
LINE
8
0
10
335.3
20
-87.95
11
335.3
21
-73.95
0
LINE
8
0
10
335.3
20
-73.95
11
321.3
21
-73.95
0
LINE
8
0
10
321.3
20
-73.95
11
321.3
21
-87.95
0
LINE
8
0
10
321.3
20
-68.9
11
335.3
21
-68.9
0
LINE
8
0
10
335.3
20
-68.9
11
335.3
21
-54.9
0
LINE
8
0
10
335.3
20
-54.9
11
321.3
21
-54.9
0
LINE
8
0
10
321.3
20
-54.9
11
321.3
21
-68.9
0
LINE
8
0
10
321.3
20
-49.85
11
335.3
21
-49.85
0
LINE
8
0
10
335.3
20
-49.85
11
335.3
21
-35.85
0
LINE
8
0
10
335.3
20
-35.85
11
321.3
21
-35.85
0
LINE
8
0
10
321.3
20
-35.85
11
321.3
21
-49.85
0
LINE
8
0
10
321.3
20
-30.8
11
335.3
21
-30.8
0
LINE
8
0
10
335.3
20
-30.8
11
335.3
21
-16.8
0
LINE
8
0
10
335.3
20
-16.8
11
321.3
21
-16.8
0
LINE
8
0
10
321.3
20
-16.8
11
321.3
21
-30.8
0
LINE
8
0
10
321.3
20
-11.75
11
335.3
21
-11.75
0
LINE
8
0
10
335.3
20
-11.75
11
335.3
21
2.25
0
LINE
8
0
10
335.3
20
2.25
11
321.3
21
2.25
0
LINE
8
0
10
321.3
20
2.25
11
321.3
21
-11.75
0
LINE
8
0
10
340.35
20
-107
11
354.35
21
-107
0
LINE
8
0
10
354.35
20
-107
11
354.35
21
-93
0
LINE
8
0
10
354.35
20
-93
11
340.35
21
-93
0
LINE
8
0
10
340.35
20
-93
11
340.35
21
-107
0
LINE
8
0
10
340.35
20
-87.95
11
354.35
21
-87.95
0
LINE
8
0
10
354.35
20
-87.95
11
354.35
21
-73.95
0
LINE
8
0
10
354.35
20
-73.95
11
340.35
21
-73.95
0
LINE
8
0
10
340.35
20
-73.95
11
340.35
21
-87.95
0
LINE
8
0
10
340.35
20
-68.9
11
354.35
21
-68.9
0
LINE
8
0
10
354.35
20
-68.9
11
354.35
21
-54.9
0
LINE
8
0
10
354.35
20
-54.9
11
340.35
21
-54.9
0
LINE
8
0
10
340.35
20
-54.9
11
340.35
21
-68.9
0
LINE
8
0
10
340.35
20
-49.85
11
354.35
21
-49.85
0
LINE
8
0
10
354.35
20
-49.85
11
354.35
21
-35.85
0
LINE
8
0
10
354.35
20
-35.85
11
340.35
21
-35.85
0
LINE
8
0
10
340.35
20
-35.85
11
340.35
21
-49.85
0
LINE
8
0
10
340.35
20
-30.8
11
354.35
21
-30.8
0
LINE
8
0
10
354.35
20
-30.8
11
354.35
21
-16.8
0
LINE
8
0
10
354.35
20
-16.8
11
340.35
21
-16.8
0
LINE
8
0
10
340.35
20
-16.8
11
340.35
21
-30.8
0
LINE
8
0
10
340.35
20
-11.75
11
354.35
21
-11.75
0
LINE
8
0
10
354.35
20
-11.75
11
354.35
21
2.25
0
LINE
8
0
10
354.35
20
2.25
11
340.35
21
2.25
0
LINE
8
0
10
340.35
20
2.25
11
340.35
21
-11.75
0
LINE
8
0
10
359.4
20
-107
11
373.4
21
-107
0
LINE
8
0
10
373.4
20
-107
11
373.4
21
-93
0
LINE
8
0
10
373.4
20
-93
11
359.4
21
-93
0
LINE
8
0
10
359.4
20
-93
11
359.4
21
-107
0
LINE
8
0
10
359.4
20
-87.95
11
373.4
21
-87.95
0
LINE
8
0
10
373.4
20
-87.95
11
373.4
21
-73.95
0
LINE
8
0
10
373.4
20
-73.95
11
359.4
21
-73.95
0
LINE
8
0
10
359.4
20
-73.95
11
359.4
21
-87.95
0
LINE
8
0
10
359.4
20
-68.9
11
373.4
21
-68.9
0
LINE
8
0
10
373.4
20
-68.9
11
373.4
21
-54.9
0
LINE
8
0
10
373.4
20
-54.9
11
359.4
21
-54.9
0
LINE
8
0
10
359.4
20
-54.9
11
359.4
21
-68.9
0
LINE
8
0
10
359.4
20
-49.85
11
373.4
21
-49.85
0
LINE
8
0
10
373.4
20
-49.85
11
373.4
21
-35.85
0
LINE
8
0
10
373.4
20
-35.85
11
359.4
21
-35.85
0
LINE
8
0
10
359.4
20
-35.85
11
359.4
21
-49.85
0
LINE
8
0
10
359.4
20
-30.8
11
373.4
21
-30.8
0
LINE
8
0
10
373.4
20
-30.8
11
373.4
21
-16.8
0
LINE
8
0
10
373.4
20
-16.8
11
359.4
21
-16.8
0
LINE
8
0
10
359.4
20
-16.8
11
359.4
21
-30.8
0
LINE
8
0
10
359.4
20
-11.75
11
373.4
21
-11.75
0
LINE
8
0
10
373.4
20
-11.75
11
373.4
21
2.25
0
LINE
8
0
10
373.4
20
2.25
11
359.4
21
2.25
0
LINE
8
0
10
359.4
20
2.25
11
359.4
21
-11.75
0
LINE
8
0
10
378.45
20
-107
11
392.45
21
-107
0
LINE
8
0
10
392.45
20
-107
11
392.45
21
-93
0
LINE
8
0
10
392.45
20
-93
11
378.45
21
-93
0
LINE
8
0
10
378.45
20
-93
11
378.45
21
-107
0
LINE
8
0
10
378.45
20
-87.95
11
392.45
21
-87.95
0
LINE
8
0
10
392.45
20
-87.95
11
392.45
21
-73.95
0
LINE
8
0
10
392.45
20
-73.95
11
378.45
21
-73.95
0
LINE
8
0
10
378.45
20
-73.95
11
378.45
21
-87.95
0
LINE
8
0
10
378.45
20
-68.9
11
392.45
21
-68.9
0
LINE
8
0
10
392.45
20
-68.9
11
392.45
21
-54.9
0
LINE
8
0
10
392.45
20
-54.9
11
378.45
21
-54.9
0
LINE
8
0
10
378.45
20
-54.9
11
378.45
21
-68.9
0
LINE
8
0
10
378.45
20
-49.85
11
392.45
21
-49.85
0
LINE
8
0
10
392.45
20
-49.85
11
392.45
21
-35.85
0
LINE
8
0
10
392.45
20
-35.85
11
378.45
21
-35.85
0
LINE
8
0
10
378.45
20
-35.85
11
378.45
21
-49.85
0
LINE
8
0
10
378.45
20
-30.8
11
392.45
21
-30.8
0
LINE
8
0
10
392.45
20
-30.8
11
392.45
21
-16.8
0
LINE
8
0
10
392.45
20
-16.8
11
378.45
21
-16.8
0
LINE
8
0
10
378.45
20
-16.8
11
378.45
21
-30.8
0
LINE
8
0
10
378.45
20
-11.75
11
392.45
21
-11.75
0
LINE
8
0
10
392.45
20
-11.75
11
392.45
21
2.25
0
LINE
8
0
10
392.45
20
2.25
11
378.45
21
2.25
0
LINE
8
0
10
378.45
20
2.25
11
378.45
21
-11.75
0
LINE
8
0
10
397.5
20
-107
11
411.5
21
-107
0
LINE
8
0
10
411.5
20
-107
11
411.5
21
-93
0
LINE
8
0
10
411.5
20
-93
11
397.5
21
-93
0
LINE
8
0
10
397.5
20
-93
11
397.5
21
-107
0
LINE
8
0
10
397.5
20
-87.95
11
411.5
21
-87.95
0
LINE
8
0
10
411.5
20
-87.95
11
411.5
21
-73.95
0
LINE
8
0
10
411.5
20
-73.95
11
397.5
21
-73.95
0
LINE
8
0
10
397.5
20
-73.95
11
397.5
21
-87.95
0
LINE
8
0
10
397.5
20
-68.9
11
411.5
21
-68.9
0
LINE
8
0
10
411.5
20
-68.9
11
411.5
21
-54.9
0
LINE
8
0
10
411.5
20
-54.9
11
397.5
21
-54.9
0
LINE
8
0
10
397.5
20
-54.9
11
397.5
21
-68.9
0
LINE
8
0
10
397.5
20
-49.85
11
411.5
21
-49.85
0
LINE
8
0
10
411.5
20
-49.85
11
411.5
21
-35.85
0
LINE
8
0
10
411.5
20
-35.85
11
397.5
21
-35.85
0
LINE
8
0
10
397.5
20
-35.85
11
397.5
21
-49.85
0
LINE
8
0
10
397.5
20
-30.8
11
411.5
21
-30.8
0
LINE
8
0
10
411.5
20
-30.8
11
411.5
21
-16.8
0
LINE
8
0
10
411.5
20
-16.8
11
397.5
21
-16.8
0
LINE
8
0
10
397.5
20
-16.8
11
397.5
21
-30.8
0
LINE
8
0
10
397.5
20
-11.75
11
411.5
21
-11.75
0
LINE
8
0
10
411.5
20
-11.75
11
411.5
21
2.25
0
LINE
8
0
10
411.5
20
2.25
11
397.5
21
2.25
0
LINE
8
0
10
397.5
20
2.25
11
397.5
21
-11.75
0
LINE
8
0
10
416.55
20
-107
11
430.55
21
-107
0
LINE
8
0
10
430.55
20
-107
11
430.55
21
-93
0
LINE
8
0
10
430.55
20
-93
11
416.55
21
-93
0
LINE
8
0
10
416.55
20
-93
11
416.55
21
-107
0
LINE
8
0
10
416.55
20
-87.95
11
430.55
21
-87.95
0
LINE
8
0
10
430.55
20
-87.95
11
430.55
21
-73.95
0
LINE
8
0
10
430.55
20
-73.95
11
416.55
21
-73.95
0
LINE
8
0
10
416.55
20
-73.95
11
416.55
21
-87.95
0
LINE
8
0
10
416.55
20
-68.9
11
430.55
21
-68.9
0
LINE
8
0
10
430.55
20
-68.9
11
430.55
21
-54.9
0
LINE
8
0
10
430.55
20
-54.9
11
416.55
21
-54.9
0
LINE
8
0
10
416.55
20
-54.9
11
416.55
21
-68.9
0
LINE
8
0
10
416.55
20
-49.85
11
430.55
21
-49.85
0
LINE
8
0
10
430.55
20
-49.85
11
430.55
21
-35.85
0
LINE
8
0
10
430.55
20
-35.85
11
416.55
21
-35.85
0
LINE
8
0
10
416.55
20
-35.85
11
416.55
21
-49.85
0
LINE
8
0
10
416.55
20
-30.8
11
430.55
21
-30.8
0
LINE
8
0
10
430.55
20
-30.8
11
430.55
21
-16.8
0
LINE
8
0
10
430.55
20
-16.8
11
416.55
21
-16.8
0
LINE
8
0
10
416.55
20
-16.8
11
416.55
21
-30.8
0
LINE
8
0
10
416.55
20
-11.75
11
430.55
21
-11.75
0
LINE
8
0
10
430.55
20
-11.75
11
430.55
21
2.25
0
LINE
8
0
10
430.55
20
2.25
11
416.55
21
2.25
0
LINE
8
0
10
416.55
20
2.25
11
416.55
21
-11.75
0
LINE
8
0
10
435.6
20
-107
11
449.6
21
-107
0
LINE
8
0
10
449.6
20
-107
11
449.6
21
-93
0
LINE
8
0
10
449.6
20
-93
11
435.6
21
-93
0
LINE
8
0
10
435.6
20
-93
11
435.6
21
-107
0
LINE
8
0
10
435.6
20
-87.95
11
449.6
21
-87.95
0
LINE
8
0
10
449.6
20
-87.95
11
449.6
21
-73.95
0
LINE
8
0
10
449.6
20
-73.95
11
435.6
21
-73.95
0
LINE
8
0
10
435.6
20
-73.95
11
435.6
21
-87.95
0
LINE
8
0
10
435.6
20
-68.9
11
449.6
21
-68.9
0
LINE
8
0
10
449.6
20
-68.9
11
449.6
21
-54.9
0
LINE
8
0
10
449.6
20
-54.9
11
435.6
21
-54.9
0
LINE
8
0
10
435.6
20
-54.9
11
435.6
21
-68.9
0
LINE
8
0
10
435.6
20
-49.85
11
449.6
21
-49.85
0
LINE
8
0
10
449.6
20
-49.85
11
449.6
21
-35.85
0
LINE
8
0
10
449.6
20
-35.85
11
435.6
21
-35.85
0
LINE
8
0
10
435.6
20
-35.85
11
435.6
21
-49.85
0
LINE
8
0
10
435.6
20
-30.8
11
449.6
21
-30.8
0
LINE
8
0
10
449.6
20
-30.8
11
449.6
21
-16.8
0
LINE
8
0
10
449.6
20
-16.8
11
435.6
21
-16.8
0
LINE
8
0
10
435.6
20
-16.8
11
435.6
21
-30.8
0
LINE
8
0
10
435.6
20
-11.75
11
449.6
21
-11.75
0
LINE
8
0
10
449.6
20
-11.75
11
449.6
21
2.25
0
LINE
8
0
10
449.6
20
2.25
11
435.6
21
2.25
0
LINE
8
0
10
435.6
20
2.25
11
435.6
21
-11.75
0
LINE
8
0
10
454.65
20
-107
11
468.65
21
-107
0
LINE
8
0
10
468.65
20
-107
11
468.65
21
-93
0
LINE
8
0
10
468.65
20
-93
11
454.65
21
-93
0
LINE
8
0
10
454.65
20
-93
11
454.65
21
-107
0
LINE
8
0
10
454.65
20
-87.95
11
468.65
21
-87.95
0
LINE
8
0
10
468.65
20
-87.95
11
468.65
21
-73.95
0
LINE
8
0
10
468.65
20
-73.95
11
454.65
21
-73.95
0
LINE
8
0
10
454.65
20
-73.95
11
454.65
21
-87.95
0
LINE
8
0
10
454.65
20
-68.9
11
468.65
21
-68.9
0
LINE
8
0
10
468.65
20
-68.9
11
468.65
21
-54.9
0
LINE
8
0
10
468.65
20
-54.9
11
454.65
21
-54.9
0
LINE
8
0
10
454.65
20
-54.9
11
454.65
21
-68.9
0
LINE
8
0
10
454.65
20
-49.85
11
468.65
21
-49.85
0
LINE
8
0
10
468.65
20
-49.85
11
468.65
21
-35.85
0
LINE
8
0
10
468.65
20
-35.85
11
454.65
21
-35.85
0
LINE
8
0
10
454.65
20
-35.85
11
454.65
21
-49.85
0
LINE
8
0
10
454.65
20
-30.8
11
468.65
21
-30.8
0
LINE
8
0
10
468.65
20
-30.8
11
468.65
21
-16.8
0
LINE
8
0
10
468.65
20
-16.8
11
454.65
21
-16.8
0
LINE
8
0
10
454.65
20
-16.8
11
454.65
21
-30.8
0
LINE
8
0
10
454.65
20
-11.75
11
468.65
21
-11.75
0
LINE
8
0
10
468.65
20
-11.75
11
468.65
21
2.25
0
LINE
8
0
10
468.65
20
2.25
11
454.65
21
2.25
0
LINE
8
0
10
454.65
20
2.25
11
454.65
21
-11.75
0
LINE
8
0
10
178.7
20
-107
11
192.7
21
-107
0
LINE
8
0
10
192.7
20
-107
11
192.7
21
-93
0
LINE
8
0
10
192.7
20
-93
11
178.7
21
-93
0
LINE
8
0
10
178.7
20
-93
11
178.7
21
-107
0
LINE
8
0
10
311.8
20
-107
11
325.8
21
-107
0
LINE
8
0
10
325.8
20
-107
11
325.8
21
-93
0
LINE
8
0
10
325.8
20
-93
11
311.8
21
-93
0
LINE
8
0
10
311.8
20
-93
11
311.8
21
-107
0
ENDSEC
0
EOF